<?xml version="1.0" standalone="no"?>
<!DOCTYPE svg PUBLIC "-//W3C//DTD SVG 20010904//EN"
 "http://www.w3.org/TR/2001/REC-SVG-20010904/DTD/svg10.dtd">
<svg version="1.0" xmlns="http://www.w3.org/2000/svg"
 width="1200.000000pt" height="854.000000pt" viewBox="0 0 1200.000000 854.000000"
 preserveAspectRatio="xMidYMid meet">

<g transform="translate(0.000000,854.000000) scale(0.100000,-0.100000)"
fill="#000000" stroke="none">
<path d="M795 8519 c5 -15 -1 -28 -25 -49 -32 -29 -33 -29 -49 -9 -14 17 -18
18 -35 6 -15 -11 -17 -17 -7 -35 7 -13 21 -22 34 -22 32 0 47 -18 47 -56 l0
-32 -84 1 c-70 2 -87 -1 -105 -17 -12 -11 -21 -26 -21 -34 0 -21 144 -9 178
16 99 70 122 68 167 -13 20 -36 35 -70 33 -77 -3 -8 -30 -13 -79 -14 -76 -1
-123 -16 -116 -37 2 -7 15 -10 28 -8 51 7 64 6 64 -9 0 -8 -9 -16 -20 -17
-122 -17 -166 -41 -119 -66 l28 -14 -25 -8 c-13 -4 -48 -18 -78 -32 -79 -34
-58 -46 60 -33 79 9 108 17 186 56 50 25 94 52 97 60 3 7 16 14 28 14 23 0 29
-7 63 -77 24 -51 85 -35 85 21 0 36 18 44 114 47 l89 4 44 -100 c24 -55 53
-122 63 -150 l20 -49 -39 -41 c-56 -59 -80 -98 -111 -178 l-27 -72 -304 -21
c-463 -33 -722 -44 -856 -37 l-123 6 0 -117 c0 -85 3 -116 13 -118 25 -3 32
-4 57 -12 14 -5 36 -17 50 -26 14 -10 79 -48 145 -85 66 -37 122 -70 125 -74
3 -5 28 -26 56 -47 81 -61 368 -287 374 -293 3 -4 34 -31 70 -61 36 -30 67
-57 70 -60 3 -3 33 -30 68 -59 l62 -54 0 -81 c-1 -57 -3 -76 -10 -64 -12 20
-276 251 -337 295 -25 18 -51 40 -59 50 -8 10 17 -47 55 -127 43 -88 98 -229
141 -360 59 -178 73 -233 81 -320 5 -58 7 -122 4 -143 -10 -58 -53 -129 -127
-211 -148 -162 -251 -371 -279 -561 -13 -93 -27 -124 -55 -131 -41 -10 -104
31 -249 162 -77 69 -166 146 -198 170 l-57 45 0 -520 0 -521 22 0 c12 0 19 -3
16 -6 -9 -9 25 -42 37 -36 6 3 7 2 3 -3 -4 -4 6 -20 22 -35 18 -17 25 -30 18
-32 -22 -8 0 -35 34 -42 33 -7 33 -8 8 -17 -31 -13 -32 -13 -24 -33 7 -19 60
-22 66 -4 3 7 11 -2 19 -20 7 -18 18 -32 22 -32 5 0 5 -5 2 -10 -3 -5 0 -10 8
-10 7 0 19 -11 25 -25 6 -14 16 -25 21 -25 6 0 7 -7 4 -17 -4 -11 -3 -14 5 -9
7 4 12 1 12 -8 0 -9 5 -16 10 -16 6 0 10 -5 10 -11 0 -7 9 -20 20 -29 17 -15
18 -19 5 -24 -12 -4 -13 -10 -3 -31 14 -32 42 -34 34 -2 -4 16 -2 14 7 -6 7
-15 16 -24 20 -21 4 4 7 0 7 -10 0 -9 4 -15 9 -12 5 3 11 -8 15 -24 4 -22 11
-30 28 -31 13 0 17 -3 10 -6 -6 -2 -10 -9 -6 -14 3 -5 1 -9 -4 -9 -6 0 -8 -9
-5 -20 4 -13 14 -20 30 -20 13 0 31 -7 39 -15 14 -13 13 -15 -10 -15 -29 0
-39 -11 -30 -34 4 -10 18 -16 36 -16 26 0 29 3 23 23 l-6 22 14 -23 c7 -12 16
-20 19 -17 3 3 11 -9 18 -27 8 -18 25 -43 39 -55 21 -18 23 -22 9 -23 -27 0
-10 -28 20 -32 32 -4 40 -24 12 -31 -33 -9 -25 -37 11 -37 27 0 31 3 26 21 -5
17 1 14 23 -12 16 -19 32 -43 36 -54 3 -11 25 -37 47 -57 25 -23 46 -52 52
-75 9 -31 15 -38 35 -38 25 0 52 -23 44 -37 -3 -5 -16 -8 -29 -8 -18 0 -22 -4
-18 -20 7 -27 43 -27 43 0 0 26 30 26 37 1 3 -11 15 -22 26 -25 17 -5 19 -8 8
-15 -20 -13 -6 -41 22 -41 13 0 31 -6 42 -13 16 -13 15 -14 -12 -10 -35 6 -45
-4 -36 -35 8 -31 60 -31 65 -1 3 21 4 21 30 -6 15 -15 25 -31 23 -35 -10 -16
17 -57 43 -67 27 -11 27 -11 5 -18 -26 -8 -27 -9 -13 -36 6 -10 18 -19 28 -19
9 0 25 -7 35 -14 17 -13 16 -15 -13 -21 -22 -5 -30 -11 -26 -22 3 -8 6 -17 6
-19 0 -2 17 -4 38 -4 21 0 42 -3 45 -7 12 -11 -15 -33 -40 -33 -19 0 -24 -4
-19 -16 3 -9 6 -18 6 -20 0 -10 69 -3 72 8 8 22 40 -2 55 -42 16 -39 33 -53
33 -27 1 20 39 -36 46 -67 3 -17 16 -38 28 -49 15 -13 17 -20 8 -23 -19 -9
-14 -24 9 -24 11 0 27 -6 34 -14 12 -12 11 -15 -10 -20 -38 -10 -32 -36 9 -36
33 0 62 -20 49 -33 -3 -4 -19 -7 -35 -7 -30 0 -34 -10 -18 -40 8 -15 18 -17
56 -14 28 3 52 0 61 -8 12 -10 8 -15 -29 -30 -24 -10 -32 -17 -18 -14 24 5 24
4 6 -9 -19 -14 -188 -72 -409 -140 -65 -20 -117 -38 -115 -40 4 -4 134 29 213
54 33 11 101 31 150 46 50 15 114 35 144 46 40 15 51 16 42 6 -9 -11 -9 -16 1
-20 7 -2 16 -4 19 -3 4 0 31 -21 60 -49 30 -27 90 -81 134 -120 43 -38 147
-136 230 -216 82 -81 175 -169 205 -197 322 -293 737 -593 1274 -919 43 -26
91 -56 105 -65 14 -9 37 -23 51 -31 14 -7 78 -46 143 -85 65 -40 120 -72 123
-72 3 0 18 -8 32 -19 15 -10 72 -42 127 -71 55 -29 112 -61 126 -71 26 -18 85
-19 1756 -19 l1730 0 148 56 c182 68 200 74 557 193 157 53 284 93 282 90 -5
-8 221 58 249 72 10 6 27 12 37 14 19 4 116 37 357 123 72 26 129 51 125 56
-3 5 0 6 7 2 7 -4 29 0 49 10 20 10 40 19 45 20 4 1 8 2 10 3 1 2 11 4 22 6
11 3 76 25 145 51 193 71 300 109 495 174 99 34 187 64 195 67 8 3 26 8 40 10
14 2 29 8 35 14 5 5 16 9 24 9 25 0 275 82 286 94 6 6 25 12 44 14 18 1 68 14
110 27 41 14 81 25 89 25 7 0 11 4 8 9 -4 5 3 7 14 4 11 -3 20 -1 20 5 0 5 17
12 38 15 20 2 116 26 212 52 96 26 270 70 385 99 l210 52 3 615 2 615 -47 39
c-118 98 -373 340 -373 354 0 36 50 119 98 163 28 27 55 48 59 48 4 0 -13 -21
-38 -48 -85 -90 -105 -134 -79 -182 9 -17 236 -228 341 -318 l39 -34 0 209 0
209 -89 80 c-49 43 -90 85 -90 92 -1 15 20 -1 118 -86 l61 -54 0 96 0 96 -32
20 c-18 11 -28 20 -23 20 6 0 21 -7 33 -16 21 -15 22 -14 22 15 0 27 -4 31
-37 36 -21 3 -45 10 -54 15 -12 6 -20 3 -28 -13 -11 -21 -11 -21 -6 -1 5 17
-6 29 -57 62 -72 48 -185 154 -242 229 -21 28 -37 53 -36 55 2 1 -7 22 -18 45
-22 42 -74 88 -86 76 -3 -4 -20 7 -38 23 -17 16 -28 24 -24 17 3 -6 2 -14 -3
-18 -7 -4 -7 -15 -1 -31 6 -14 10 -28 10 -30 0 -3 -46 32 -102 78 -57 46 -120
96 -140 111 l-38 28 54 72 c140 190 156 228 156 364 0 117 -15 164 -77 241
-33 41 -120 104 -169 122 -21 9 -24 6 -34 -33 -6 -23 -18 -65 -26 -94 -18 -64
-18 -63 5 -58 14 3 23 -7 35 -38 41 -111 42 -203 2 -272 -30 -50 -42 -127 -28
-177 6 -22 6 -40 1 -45 -11 -11 -119 36 -119 51 0 6 14 24 30 41 17 18 33 47
36 67 6 33 4 36 -35 51 l-40 17 28 63 c32 71 49 133 33 124 -5 -4 -15 -28 -22
-54 -7 -27 -19 -55 -27 -64 -7 -8 -13 -21 -13 -27 0 -7 -5 -12 -10 -12 -6 0
-9 -3 -8 -7 3 -12 -23 -56 -49 -83 -20 -19 -22 -26 -11 -35 26 -20 73 -101 75
-128 1 -20 -7 -34 -32 -53 -23 -17 -31 -30 -28 -44 3 -11 9 -20 14 -20 5 0 9
-9 9 -20 0 -11 -4 -20 -10 -20 -13 0 -92 -123 -82 -129 18 -14 4 -52 -31 -80
-44 -35 -108 -98 -88 -86 9 5 12 3 9 -6 -3 -8 -10 -13 -16 -12 -6 2 -13 -5
-16 -15 -7 -22 -79 -58 -132 -67 -22 -4 -50 -10 -64 -15 -14 -5 -47 -11 -75
-14 -103 -10 -155 -19 -155 -26 0 -13 -157 -40 -251 -43 l-96 -2 -99 -87
c-106 -93 -471 -452 -699 -689 -77 -80 -187 -188 -244 -240 -167 -150 -561
-526 -704 -670 -27 -27 -51 -49 -54 -49 -2 0 -37 -28 -77 -62 -110 -95 -186
-150 -211 -155 -44 -7 -95 -10 -100 -5 -9 9 -28 11 -240 22 -110 6 -218 12
-240 15 -63 8 -396 47 -435 51 -79 8 -390 71 -390 79 0 2 44 95 99 207 99 205
151 330 191 468 12 41 25 78 28 82 4 4 34 0 67 -7 75 -18 118 -18 50 0 -27 7
-62 16 -76 19 -21 5 -25 10 -22 30 4 20 -1 28 -32 43 l-36 19 60 19 c33 11 55
23 49 27 -12 7 6 11 145 29 48 6 87 13 87 15 0 2 -55 3 -122 2 -68 -1 -166 2
-219 6 -92 8 -96 10 -91 31 4 24 39 45 73 45 40 0 55 16 51 54 -2 20 -8 36
-12 36 -10 0 -2 30 14 52 13 17 154 36 406 53 52 4 115 11 140 16 37 7 33 7
-25 3 -328 -22 -519 -32 -531 -27 -38 14 10 83 99 141 23 15 47 32 52 39 6 7
28 20 49 29 30 12 36 18 25 25 -9 6 11 9 58 9 48 0 73 -4 76 -12 4 -10 6 -10
6 0 1 15 61 -51 61 -67 0 -8 8 -10 21 -6 19 6 31 -2 143 -103 10 -9 22 -26 26
-37 9 -20 9 -20 9 0 1 20 -114 145 -132 144 -11 0 -47 46 -47 60 0 6 12 13 28
17 80 18 125 32 105 33 -12 1 -45 -4 -73 -10 -28 -6 -54 -8 -57 -5 -3 3 0 19
7 36 10 25 10 34 -4 55 -9 14 -24 25 -34 25 -10 0 -1 10 23 27 22 15 70 51
107 80 67 53 68 53 167 65 80 9 103 9 115 -1 14 -12 154 -192 169 -217 8 -13
-104 -31 -241 -37 -46 -3 -86 -8 -90 -12 -4 -4 56 -4 134 -1 154 8 176 10 279
32 39 8 93 19 120 24 28 5 77 19 110 31 48 18 80 22 158 21 117 -1 197 -22
336 -90 52 -25 100 -45 107 -45 8 0 14 -4 14 -9 0 -4 -4 -8 -9 -8 -16 0 -190
-116 -314 -209 -120 -90 -106 -89 24 2 90 63 279 187 354 232 98 58 328 203
341 214 6 5 24 16 40 24 16 8 39 24 51 35 13 10 107 77 209 148 194 135 373
279 415 336 14 18 33 56 44 83 13 35 38 69 85 115 36 36 82 85 102 110 20 25
53 55 74 65 22 11 61 41 88 68 31 30 66 53 95 61 l46 15 -37 0 c-21 1 -38 5
-38 10 0 25 32 157 40 165 8 8 11 -4 25 -85 2 -8 10 -32 19 -53 9 -21 14 -42
11 -46 -5 -8 26 -16 98 -27 46 -6 52 -15 33 -52 -20 -37 -67 -71 -99 -71 -28
0 -56 -31 -53 -58 2 -9 29 -35 60 -57 58 -40 58 -40 164 -42 74 -2 118 2 143
11 49 20 116 66 95 66 -20 0 -20 1 5 58 44 97 49 110 49 121 0 11 31 89 70
176 25 56 50 132 50 153 0 9 8 40 19 67 66 176 37 672 -48 820 -10 17 -23 45
-29 64 -13 38 -104 193 -130 221 -179 196 -233 242 -365 313 -29 15 -51 33
-49 40 4 22 -58 -57 -79 -100 -20 -41 -21 -42 -44 -27 -13 9 -28 13 -33 10 -4
-3 -9 15 -11 39 -2 45 18 105 47 140 16 19 16 19 -2 4 -14 -13 -25 -15 -49 -8
-17 5 -35 13 -40 18 -5 5 -15 7 -22 5 -7 -3 -30 3 -52 13 -23 12 -48 16 -63
13 -15 -4 -34 -1 -47 8 -13 8 -23 11 -23 7 0 -4 -7 -1 -17 6 -9 8 -18 13 -20
12 -1 -2 -4 -3 -5 -2 -13 5 -84 11 -128 11 -30 0 -66 -1 -80 -1 -183 1 -239
-1 -280 -11 -27 -7 -54 -9 -60 -5 -5 3 -15 3 -22 -1 -6 -4 -35 -8 -63 -9 -29
-1 -76 -8 -104 -15 -39 -9 -56 -9 -64 -1 -8 8 -8 11 2 11 7 0 9 5 5 12 -4 6
-3 8 3 5 6 -4 30 2 54 12 24 10 53 21 63 25 10 4 16 9 13 13 -4 3 -33 -4 -66
-17 l-60 -22 -48 27 c-26 16 -106 66 -176 112 -129 83 -144 92 -132 73 8 -12
284 -196 308 -206 19 -7 23 -34 5 -34 -13 0 -19 -4 -171 -105 -55 -36 -101
-65 -103 -65 -2 0 -28 16 -59 35 -30 20 -55 33 -55 30 0 -2 25 -21 56 -42 l56
-37 -49 -43 c-26 -23 -56 -45 -65 -48 -16 -6 -153 82 -268 170 -53 41 -73 46
-33 9 l28 -26 -32 22 c-18 11 -35 25 -38 30 -4 6 -15 10 -25 10 -23 0 -50 -48
-55 -96 -3 -33 2 -38 128 -140 88 -71 137 -104 149 -101 24 7 23 -4 -3 -37
l-21 -26 -51 43 c-91 75 -87 73 -77 35 12 -41 13 -85 1 -92 -4 -3 -6 5 -4 18
3 12 0 41 -6 63 -9 31 -21 47 -49 64 -20 12 -32 24 -25 26 13 5 -46 59 -94 86
l-32 17 -24 -32 c-41 -56 -94 -151 -117 -208 -12 -30 -28 -66 -37 -81 -15 -25
-15 -28 12 -64 16 -20 63 -68 104 -107 42 -38 64 -63 50 -54 -15 9 -31 15 -37
14 -5 -2 -41 22 -79 53 -107 88 -113 145 -31 304 68 134 227 406 280 480 49
69 49 70 9 27 -35 -37 -45 -42 -73 -37 -88 14 -124 30 -168 75 -43 44 -54 62
-78 122 -11 26 -127 106 -564 388 -178 114 -392 266 -422 299 -11 12 -30 21
-43 21 -28 0 -29 11 -4 81 43 127 159 314 218 354 21 14 56 40 79 58 38 32 82
46 189 62 73 11 74 16 13 93 -76 94 -353 356 -518 491 -103 85 -142 111 -164
111 l-30 0 44 -37 c24 -21 53 -45 64 -54 27 -22 15 -43 -33 -57 -22 -7 -45
-22 -51 -32 -13 -24 -13 -24 40 -5 23 8 61 15 84 15 37 0 48 -6 105 -61 l64
-61 -7 -71 c-22 -237 -34 -329 -44 -339 -7 -7 -12 -22 -12 -35 0 -17 8 -24 33
-31 50 -13 46 -38 -27 -170 -35 -64 -81 -152 -102 -195 -31 -65 -44 -82 -76
-98 -48 -25 -70 -22 -79 11 -5 20 -7 16 -13 -25 -4 -27 -12 -61 -19 -75 -14
-27 -34 -29 -28 -2 2 9 6 45 8 80 7 100 -25 152 -93 152 -54 0 -124 -74 -124
-131 0 -20 3 -21 48 -15 41 5 53 3 82 -19 18 -14 37 -30 40 -35 11 -17 4 -78
-10 -95 -14 -16 -65 -21 -55 -5 3 6 -4 10 -17 10 -16 0 -19 -3 -10 -9 10 -6 8
-10 -9 -14 -26 -7 -78 12 -97 36 -8 9 -21 13 -29 10 -10 -4 -24 3 -38 21 -18
23 -31 27 -81 31 -32 1 -84 6 -114 9 -30 3 -93 8 -140 12 -47 3 -92 8 -100 9
-8 2 -30 6 -49 9 -19 4 -41 11 -50 15 -9 5 -37 9 -63 9 -27 1 -56 6 -67 11
-10 6 -21 8 -24 5 -7 -8 -67 25 -67 37 0 9 -48 34 -62 31 -4 -1 -10 7 -13 18
-4 11 -24 29 -46 40 -21 11 -39 24 -39 29 0 5 -15 13 -32 16 -18 4 -43 16 -55
28 -13 11 -26 18 -29 14 -4 -3 -15 0 -26 7 -16 11 -62 13 -228 9 -194 -4 -211
-3 -250 16 -28 14 -38 15 -30 5 20 -23 0 -16 -39 15 -50 39 -237 161 -247 161
-5 0 43 -34 106 -76 63 -42 133 -91 156 -110 43 -35 66 -45 44 -19 -25 30 3
14 64 -36 92 -76 189 -170 182 -176 -3 -4 -16 3 -29 15 -35 33 -45 26 -12 -8
22 -23 31 -27 42 -18 17 14 29 3 15 -15 -9 -10 2 -28 49 -78 78 -82 207 -274
264 -394 60 -125 57 -133 -6 -15 -124 232 -304 463 -489 628 -81 72 -110 92
-133 92 -30 0 -81 35 -159 111 -37 36 -118 94 -118 84 0 -9 45 -50 52 -48 5 2
8 -4 8 -12 0 -8 4 -15 9 -15 22 0 330 -299 397 -387 93 -121 221 -280 245
-303 14 -14 49 -61 79 -105 52 -79 52 -80 15 -45 l-38 35 40 -55 c49 -66 177
-283 199 -336 14 -34 14 -37 0 -25 -8 7 -34 44 -58 81 -23 38 -45 67 -50 64
-4 -3 -5 2 -2 10 3 9 0 18 -8 21 -8 3 -15 11 -15 18 0 16 -108 187 -187 297
-33 47 -99 123 -146 170 -46 47 -73 72 -59 55 52 -62 98 -135 85 -135 -2 0
-20 27 -40 60 -21 33 -40 60 -44 60 -11 0 -42 56 -37 64 3 3 2 4 -1 2 -8 -6
-41 28 -84 84 -58 76 -148 174 -198 215 -39 31 -35 25 24 -36 39 -41 93 -101
119 -134 l49 -60 -60 56 c-111 104 -221 199 -226 194 -2 -3 -29 18 -59 46 -30
28 -75 66 -100 85 -26 19 -59 50 -74 70 -26 34 -26 35 -5 24 57 -30 205 -133
230 -160 3 -3 16 -14 30 -25 l25 -20 -25 29 c-28 32 -162 136 -200 156 -14 7
-57 36 -96 65 -82 61 -140 92 -242 129 -163 58 -310 91 -328 73 -4 -4 6 -8 22
-8 17 -1 22 -3 12 -6 -10 -2 -18 -9 -18 -14 0 -5 -12 -9 -27 -9 -27 -1 -28 -1
-8 -16 19 -15 18 -16 -17 -10 -22 4 -38 3 -38 -3 0 -5 -10 -7 -22 -4 -13 2 -3
-5 21 -16 24 -12 41 -24 37 -28 -3 -4 6 -15 21 -25 34 -22 35 -21 -48 -4 -74
15 -160 11 -153 -8 3 -7 20 -10 44 -8 25 3 40 0 40 -7 0 -6 6 -11 14 -11 7 0
19 -7 26 -15 9 -11 9 -15 1 -15 -9 0 -9 -5 -1 -20 6 -11 8 -20 4 -20 -3 0 1
-11 10 -25 9 -14 14 -30 11 -36 -4 -5 -2 -16 4 -23 13 -15 -4 -66 -21 -66 -5
0 -6 5 -2 12 4 6 3 8 -2 5 -6 -3 -43 32 -83 79 -43 50 -78 81 -84 78 -8 -5 -8
-2 0 6 11 11 17 9 39 -11 26 -23 26 -23 15 -1 -6 12 -16 22 -21 22 -5 0 -17
11 -26 25 -13 21 -15 30 -6 48 7 12 10 34 8 50 -3 23 1 28 23 33 56 12 53 17
-23 41 -50 15 -75 28 -69 34 6 6 23 4 45 -6 33 -13 37 -13 44 3 4 9 7 20 6 23
-3 15 133 20 225 9 168 -20 263 -52 497 -166 48 -24 94 -44 102 -44 8 0 14 -4
14 -10 0 -5 3 -9 8 -9 19 3 33 -2 28 -10 -3 -5 0 -11 7 -14 8 -3 14 1 14 7 0
13 -116 81 -265 157 -42 21 -84 45 -92 52 -25 23 -158 62 -250 73 -25 3 -56
10 -70 15 -14 5 -101 18 -195 30 -210 26 -371 21 -513 -17 -52 -13 -98 -22
-102 -19 -5 3 -11 1 -14 -4 -4 -5 -34 -19 -69 -31 -71 -24 -120 -49 -97 -50 8
0 3 -7 -13 -16 -15 -8 -33 -12 -39 -8 -6 4 -8 3 -4 -4 3 -6 -4 -14 -16 -18
-12 -4 -42 -19 -67 -34 l-44 -28 -61 34 c-65 35 -168 64 -226 63 -30 -1 -27
-3 20 -12 38 -9 56 -17 58 -29 4 -19 -4 -17 -103 27 -39 17 -165 45 -204 45
-41 0 -72 28 -138 130 -64 98 -175 210 -257 259 -71 42 -170 71 -258 74 -58 2
-70 -1 -92 -22 -28 -26 -56 -23 -56 7 0 24 29 51 66 62 22 6 11 8 -49 9 l-77
1 15 -37 c9 -21 23 -45 31 -54 21 -23 114 -171 114 -181 0 -4 -4 -8 -9 -8 -9
0 -21 17 -124 178 l-67 102 -115 0 c-113 0 -116 -1 -110 -21z m252 -74 c42
-42 40 -66 -7 -78 -26 -7 -37 -5 -45 6 -6 9 -19 15 -30 14 -24 -2 -42 57 -24
79 21 26 68 17 106 -21z m92 -142 c46 -53 49 -74 11 -78 -39 -5 -76 33 -84 83
-5 37 -4 42 13 42 11 0 38 -21 60 -47z m2189 -210 c-31 -8 -19 -25 15 -21 17
3 43 1 57 -3 23 -6 23 -7 3 -8 -31 -1 -54 -12 -47 -22 3 -5 -13 -9 -35 -9 -30
0 -41 4 -41 15 0 21 32 55 50 54 11 -1 11 -2 -2 -6z m431 -49 c8 -7 -54 -2
-79 6 -17 6 -9 7 25 3 28 -3 52 -7 54 -9z m-1089 -28 c0 -2 -7 -7 -16 -10 -8
-3 -12 -2 -9 4 6 10 25 14 25 6z m-870 -20 c0 -6 -93 -37 -97 -32 -2 2 15 11
39 19 47 17 58 19 58 13z m201 -11 c42 -8 101 -23 129 -34 55 -21 160 -86 160
-99 0 -4 -12 -14 -28 -22 -34 -19 -120 -6 -172 28 -65 41 -124 54 -213 49 -45
-3 -94 -8 -109 -10 -38 -7 -98 -59 -144 -122 -22 -30 -43 -55 -49 -55 -12 -1
-63 -39 -52 -40 4 0 19 7 33 16 l25 17 -13 -28 c-7 -15 -14 -22 -16 -15 -3 7
-13 3 -30 -12 -15 -13 -20 -15 -13 -5 8 9 11 20 8 23 -7 7 34 93 66 139 19 27
19 28 2 15 -10 -8 -31 -35 -47 -60 -16 -25 -36 -45 -45 -45 -31 0 -97 -163
-153 -379 -33 -126 -16 -98 25 41 20 71 39 130 42 133 9 9 -7 -71 -39 -183
-16 -60 -28 -111 -25 -113 3 -3 10 18 17 46 7 28 14 49 17 46 3 -2 -5 -40 -17
-83 -17 -62 -23 -125 -31 -308 -13 -323 -13 -585 -1 -689 7 -54 8 -95 2 -106
-5 -9 -7 -34 -4 -56 7 -63 35 -229 40 -233 2 -2 -2 -11 -9 -19 -9 -13 -9 -14
1 -8 14 8 16 -3 3 -23 -14 -22 -38 -6 -44 31 -3 18 -17 100 -31 181 -14 82
-28 170 -31 195 -31 305 -34 341 -41 552 -3 102 -8 187 -10 189 -2 2 -4 -40
-4 -95 0 -54 -6 -139 -14 -187 -7 -48 -9 -90 -4 -93 4 -3 8 -11 8 -17 0 -7 -4
-6 -10 3 -7 11 -10 -2 -11 -45 -1 -33 -3 -71 -5 -85 -2 -14 -4 -108 -5 -210
-1 -215 11 -369 46 -567 24 -136 29 -201 14 -185 -14 14 -72 339 -84 467 -4
39 -8 80 -10 91 -22 141 -12 498 21 824 15 148 64 394 89 453 18 41 18 33 1
-45 -16 -69 -39 -289 -31 -296 3 -3 5 2 5 12 0 9 4 15 8 12 5 -3 8 14 7 37 -1
23 2 47 5 52 4 6 10 44 14 85 27 308 88 496 194 590 31 28 67 53 79 57 13 3
23 11 23 19 0 19 84 84 151 116 148 73 180 78 310 53z m285 -65 c8 0 11 -6 7
-17 -4 -9 -2 -14 3 -10 5 3 10 -4 10 -15 0 -19 -1 -19 -19 4 -10 12 -26 29
-35 37 -16 13 -16 13 1 7 10 -3 25 -6 33 -6z m-271 -44 c20 -9 44 -21 55 -29
19 -13 15 -14 -37 -11 -32 1 -75 -2 -95 -7 -20 -5 -67 -11 -103 -14 -77 -4
-132 -29 -188 -83 l-38 -37 5 28 c6 32 62 106 104 135 15 11 47 25 72 30 57
14 179 7 225 -12z m1472 -32 c-3 -3 -12 -4 -19 -1 -8 3 -5 6 6 6 11 1 17 -2
13 -5z m6 -239 c30 -37 30 -38 6 -20 -15 11 -46 36 -70 55 -24 19 -39 29 -35
21 6 -10 5 -12 -3 -7 -6 4 -9 11 -6 15 2 5 -4 16 -15 26 -22 19 -28 41 -8 29
8 -5 9 -1 5 12 -7 19 67 -57 126 -131z m-2016 40 c-13 -33 -29 -59 -36 -57 -6
1 -11 -6 -12 -15 0 -10 -3 -13 -5 -7 -3 6 7 38 21 70 46 105 72 112 32 9z
m111 25 c-7 -10 -14 -18 -15 -16 -6 6 9 36 18 36 5 0 4 -9 -3 -20z m1729 -12
c30 -33 103 -149 103 -164 0 -8 -6 -11 -15 -8 -23 9 -27 -17 -10 -65 8 -24 15
-54 15 -66 0 -27 -36 -75 -56 -75 -7 0 -35 32 -61 72 -44 65 -48 69 -51 45 -3
-28 -39 -46 -63 -31 -9 5 -11 1 -7 -14 11 -39 -12 -35 -28 5 -8 21 -20 48 -26
60 -6 11 -8 26 -4 31 3 6 -3 30 -14 53 -29 64 -27 95 8 102 18 4 36 -1 55 -14
27 -19 30 -20 54 -4 17 12 23 23 20 37 -6 21 24 58 46 58 8 0 23 -10 34 -22z
m148 -76 c-3 -3 0 -11 6 -18 8 -9 3 -10 -23 -5 -18 4 -37 8 -42 9 -9 0 -46 52
-46 65 0 13 27 8 40 -8 7 -8 17 -15 23 -15 5 0 2 10 -9 23 -10 12 -2 7 19 -12
20 -19 35 -37 32 -39z m1070 -173 c33 -35 51 -56 40 -48 -11 8 2 -12 29 -43
27 -32 53 -55 57 -52 4 2 11 -1 15 -7 4 -8 3 -9 -4 -5 -22 13 -12 -4 36 -67
53 -67 137 -190 134 -194 -7 -9 0 -23 8 -18 6 4 7 -1 3 -11 -4 -11 -3 -15 4
-11 7 5 9 0 6 -12 -4 -16 21 -81 32 -81 2 0 7 5 11 12 4 6 3 8 -4 4 -7 -4 -10
1 -9 14 1 11 2 20 3 20 9 0 43 -74 38 -82 -4 -6 -2 -8 4 -4 12 7 104 -167 152
-289 17 -44 40 -98 50 -120 22 -47 39 -127 41 -194 2 -46 2 -46 9 -11 5 26 8
12 8 -50 l0 -85 -23 90 c-26 100 -82 245 -120 309 -13 22 -35 71 -48 107 -41
109 -125 266 -210 392 -43 64 -83 117 -88 117 -5 0 -9 4 -9 9 0 6 -21 32 -48
60 -39 40 -51 48 -65 39 -12 -6 -22 -6 -31 1 -10 8 -17 6 -28 -7 -14 -16 -9
-27 72 -142 48 -68 93 -126 101 -128 8 -3 23 -12 33 -21 16 -13 18 -13 11 -1
-5 10 -5 12 3 5 6 -5 40 -59 76 -120 78 -131 89 -148 81 -121 -6 20 -6 20 16
0 22 -19 22 -19 10 3 -23 44 -30 72 -21 78 10 6 29 -32 35 -70 2 -11 13 -45
25 -75 55 -137 85 -306 62 -346 -10 -17 -11 -16 -12 9 0 63 -132 363 -183 418
-26 28 -33 16 -10 -18 21 -31 63 -129 63 -147 -1 -6 -11 12 -23 39 -27 63 -79
158 -113 209 l-26 39 23 -6 c23 -6 23 -5 5 8 -11 8 -23 15 -27 15 -5 0 -35 39
-69 88 -33 48 -94 132 -135 187 -41 55 -99 136 -129 180 -54 80 -54 80 -61
177 -4 53 -4 106 0 118 6 19 12 16 73 -39 37 -33 94 -88 127 -122z m-1677 117
c-13 -19 -25 -33 -27 -31 -2 3 2 11 9 20 7 8 9 15 4 15 -6 0 26 29 34 30 1 0
-8 -15 -20 -34z m67 14 c-3 -6 1 -13 9 -16 16 -6 53 -110 47 -129 -2 -5 -7
-26 -10 -45 l-6 -35 -17 34 c-15 31 -16 32 -23 12 -3 -12 -11 -19 -16 -16 -5
4 -9 0 -9 -7 0 -7 -5 -5 -11 6 -9 14 -13 15 -19 6 -5 -8 -12 6 -18 36 -12 53
-4 76 44 133 25 30 42 42 29 21z m1595 -85 c30 -30 52 -55 49 -55 -2 0 -29 25
-59 55 -30 30 -52 55 -49 55 2 0 29 -25 59 -55z m-1406 -57 c-3 -4 -14 -8 -25
-8 -14 0 -19 -7 -19 -25 0 -29 -24 -34 -34 -7 -23 63 -24 71 -11 65 8 -2 22 4
31 16 18 20 18 20 40 -6 13 -15 21 -30 18 -35z m1940 -155 c88 -93 112 -121
215 -258 106 -139 152 -212 219 -342 77 -149 123 -302 121 -396 -1 -42 -1 -41
-10 13 -27 160 -158 464 -266 617 -72 101 -217 279 -289 355 -49 51 -62 68
-50 68 3 0 29 -26 60 -57z m-653 -89 c18 -26 65 -101 105 -168 l74 -121 -30
-3 c-17 -2 -45 4 -62 12 -17 9 -28 13 -24 9 4 -4 -24 -13 -61 -19 -37 -6 -85
-15 -105 -19 -36 -7 -38 -6 -38 19 0 14 9 40 20 58 11 18 20 49 20 68 1 19 7
48 13 64 l13 29 39 -54 c41 -58 64 -84 50 -59 -5 8 -28 43 -52 76 -24 34 -43
71 -43 83 0 24 27 71 41 71 4 0 22 -21 40 -46z m258 -283 c26 -33 28 -38 11
-34 -22 6 -31 16 -48 56 -15 36 -2 28 37 -22z m1745 34 c40 -19 92 -102 78
-125 -5 -9 -13 -30 -17 -48 -6 -30 -25 -46 -25 -21 0 6 -10 9 -22 7 -14 -2
-24 -13 -30 -33 -17 -57 -51 -110 -93 -145 -24 -19 -48 -45 -54 -57 -6 -13
-17 -23 -25 -23 -8 0 -18 -9 -21 -20 -3 -11 -10 -20 -15 -20 -5 0 -19 -18 -31
-40 -18 -31 -30 -41 -58 -46 -20 -4 -40 -13 -46 -20 -13 -16 -92 -44 -127 -44
-17 0 -29 -7 -32 -18 -7 -22 -92 -62 -132 -62 -17 0 -46 -10 -65 -23 -19 -13
-39 -26 -46 -30 -8 -5 -12 13 -12 67 0 86 -18 173 -62 300 -41 120 -38 128 67
133 151 7 163 11 208 64 33 39 33 49 -1 50 -23 1 -25 2 -8 8 11 3 34 13 50 22
17 9 93 37 170 62 245 80 292 89 349 62z m-2209 -75 c10 -11 13 -20 7 -20 -6
0 -16 9 -22 20 -6 11 -9 20 -7 20 2 0 12 -9 22 -20z m293 8 c9 -9 12 -9 12 0
0 15 32 15 80 1 41 -12 54 -33 105 -173 35 -94 32 -93 -18 6 -42 84 -95 163
-103 155 -2 -2 5 -22 16 -45 26 -53 70 -217 70 -259 0 -18 4 -33 10 -33 13 0
4 82 -15 145 -8 27 -13 50 -11 52 4 4 63 -136 71 -170 5 -19 1 -34 -14 -53
l-21 -27 -1 24 c-1 13 -6 0 -11 -29 -10 -57 -22 -61 -31 -10 -7 42 -36 112
-44 104 -3 -3 0 -26 7 -51 19 -68 8 -131 -29 -169 l-31 -31 0 36 c0 92 -54
208 -173 371 l-85 117 49 16 c27 9 71 20 97 25 26 4 49 8 53 9 3 0 10 -4 17
-11z m872 -28 c6 -11 8 -20 6 -20 -3 0 -10 9 -16 20 -6 11 -8 20 -6 20 3 0 10
-9 16 -20z m-651 -9 c48 -48 214 -391 197 -408 -2 -2 -25 -1 -51 2 -43 7 -45
8 -25 22 36 26 21 32 -26 11 -55 -24 -64 -17 -64 53 0 63 -39 210 -85 322 -10
24 29 23 54 -2z m-399 -99 c90 -105 124 -157 164 -253 32 -79 33 -84 18 -108
-15 -24 -15 -25 -1 -13 14 11 17 9 23 -10 11 -41 6 -69 -19 -120 -14 -27 -22
-55 -18 -60 3 -6 2 -9 -3 -5 -5 3 -15 -6 -21 -20 -12 -25 -12 -25 7 -8 18 16
19 15 25 -39 4 -31 11 -53 16 -50 5 3 6 -2 3 -10 -3 -9 -1 -16 5 -16 6 0 11
-8 11 -17 0 -29 55 -117 95 -151 56 -50 70 -38 20 16 -68 71 -116 188 -86 206
6 4 11 0 11 -11 0 -26 38 -85 50 -78 6 3 10 1 10 -5 0 -7 7 -5 16 4 8 9 20 16
25 16 5 0 9 16 9 35 0 38 -19 87 -31 80 -4 -3 -11 4 -14 16 -5 14 -2 25 6 30
22 14 86 10 99 -6 7 -8 15 -13 19 -11 4 3 7 -5 7 -17 1 -86 3 -95 25 -90 19 5
20 11 14 52 -9 66 -63 178 -97 202 -15 11 -26 25 -23 30 11 17 138 10 166 -9
42 -28 56 -45 52 -62 -2 -8 1 -26 7 -40 9 -22 10 -23 6 -2 -2 12 0 22 5 22 5
0 9 12 10 28 0 15 4 36 8 47 l8 20 6 -20 c3 -11 9 -42 12 -70 15 -113 70 -289
150 -475 82 -193 77 -363 -19 -599 l-24 -60 71 -48 c40 -26 73 -55 75 -64 2
-10 -49 -50 -152 -120 -148 -99 -155 -106 -173 -153 -22 -61 -51 -79 -153
-100 -104 -20 -157 -27 -290 -36 -105 -7 -335 1 -418 16 -65 11 -22 -14 45
-27 72 -13 443 -17 498 -5 l30 7 18 -70 c10 -38 45 -124 79 -192 85 -173 149
-234 283 -265 11 -2 -16 14 -59 36 -51 25 -87 51 -99 70 -23 36 -19 36 53 9
101 -38 204 -101 265 -160 33 -33 66 -59 72 -59 25 0 21 -20 -14 -74 -37 -55
-64 -70 -88 -47 -6 5 -84 32 -175 60 -91 29 -209 70 -263 92 -148 60 -338 90
-577 89 -102 0 -223 -3 -270 -6 l-85 -6 0 104 c0 78 4 110 15 124 14 18 14 19
-7 1 -21 -18 -21 -18 -36 25 -9 24 -27 70 -40 103 -41 99 -41 102 -11 108 19
3 45 -6 88 -31 42 -25 75 -36 106 -38 l44 -2 -60 25 c-48 19 -72 37 -109 81
-27 31 -37 46 -22 33 15 -14 30 -22 33 -18 3 3 30 -14 59 -37 88 -72 142 -106
210 -131 86 -33 87 -12 3 34 -60 33 -248 209 -248 233 0 5 -15 28 -34 51 -41
52 -116 162 -116 172 0 4 15 -5 33 -19 17 -15 37 -30 43 -35 20 -17 73 -41
141 -65 68 -25 94 -28 51 -5 -75 40 -170 132 -277 271 -8 11 11 5 56 -17 43
-22 88 -37 123 -40 l55 -5 -50 13 c-81 21 -174 77 -247 149 -37 37 -68 72 -68
77 0 6 -16 35 -35 65 -38 60 -41 72 -21 98 10 13 15 15 24 6 7 -7 12 -8 12 -3
0 6 4 6 8 0 4 -6 30 -22 59 -37 l51 -26 -29 42 c-25 35 -28 46 -20 66 6 16 10
19 10 8 1 -9 19 -39 42 -68 83 -105 197 -145 283 -99 27 14 43 29 41 38 -1 9
1 21 6 26 4 6 12 29 17 51 7 33 6 43 -7 51 -15 10 -15 12 1 25 16 12 16 17 -3
71 -32 93 -95 173 -159 198 -19 8 66 33 87 25 8 -3 12 -2 9 3 -7 11 100 23
144 15 l35 -6 -48 31 c-26 18 -45 36 -42 41 7 12 -78 24 -111 16 l-26 -7 22
31 c27 38 22 38 -26 -1 -22 -17 -66 -44 -99 -59 -33 -15 -76 -44 -96 -64 -39
-37 -49 -37 -49 0 0 14 16 36 43 59 30 26 33 31 10 16 -18 -12 -35 -26 -38
-31 -4 -6 -10 -10 -14 -10 -10 0 -33 138 -32 189 1 43 -17 292 -25 342 -5 35
-4 38 54 75 96 63 99 65 65 49 -37 -18 -47 -19 -38 -5 3 5 -15 1 -40 -10 -26
-11 -48 -20 -49 -20 -2 0 -6 46 -10 103 -4 56 -13 131 -21 167 -7 36 -12 66
-11 68 3 2 113 -117 183 -198 51 -58 158 -229 212 -337 54 -108 81 -198 81
-276 0 -30 4 -46 10 -42 6 3 10 15 10 26 0 10 4 19 9 19 15 0 41 78 41 122 0
56 11 41 21 -29 7 -51 8 -48 4 27 -3 60 0 97 11 125 8 22 18 49 21 60 5 20 30
79 64 150 10 22 29 75 42 119 l23 78 16 -43 c64 -175 80 -269 62 -373 -4 -27
-9 -35 -15 -25 -6 9 -9 0 -9 -28 0 -24 2 -43 5 -43 2 0 14 32 26 71 18 58 20
83 14 147 -4 42 -4 74 0 70 3 -3 17 -37 30 -75 13 -37 24 -61 24 -54 2 35 -54
193 -99 283 l-49 97 16 46 c8 26 19 43 23 38 25 -29 94 -250 106 -340 4 -29
10 -53 15 -53 4 0 10 -10 12 -22 2 -13 2 -1 -1 26 -2 27 -5 63 -7 80 -3 34 17
103 29 98 4 -2 21 9 39 23 26 21 27 24 7 15 -14 -7 -40 -23 -58 -37 -23 -17
-33 -21 -36 -11 -44 137 -92 279 -102 300 -13 25 -8 36 16 36 3 0 34 -34 70
-76z m1104 13 c15 -27 20 -41 11 -30 -19 22 -63 106 -48 90 5 -5 22 -32 37
-60z m56 -135 c10 -18 7 -22 -22 -35 -29 -12 -34 -12 -45 2 -21 27 -15 42 20
46 17 2 33 5 34 5 1 1 7 -7 13 -18z m-170 -72 c12 -24 15 -35 7 -26 -8 10 -17
15 -21 11 -4 -4 -4 1 0 11 4 12 4 17 -2 13 -5 -3 -10 3 -10 14 0 27 3 24 26
-23z m226 -54 c36 -98 64 -221 64 -279 l0 -50 -44 95 c-51 111 -116 258 -123
281 -3 11 5 19 29 26 18 5 36 7 41 3 4 -4 19 -38 33 -76z m-4327 -141 c1 -71
-2 -123 -7 -123 -15 0 -21 87 -14 220 8 148 17 103 21 -97z m3531 114 c0 -16
-26 -35 -35 -25 -3 2 1 19 7 36 12 32 28 26 28 -11z m-113 -39 c-3 -7 -5 -2
-5 12 0 14 2 19 5 13 2 -7 2 -19 0 -25z m470 -25 c48 -132 109 -382 87 -361
-3 3 -31 0 -62 -8 -31 -7 -62 -13 -69 -14 -17 0 -52 119 -63 215 -5 44 -12 99
-15 123 -10 90 27 18 53 -103 l9 -40 14 30 c9 19 13 64 13 123 -1 98 7 106 33
35z m-3821 -353 c14 -85 32 -180 40 -211 8 -31 14 -70 13 -85 -1 -25 -3 -23
-15 16 -17 54 -19 61 -45 220 -27 169 -37 248 -43 360 l-5 95 15 -120 c8 -66
26 -190 40 -275z m3434 215 c29 -31 15 -33 -19 -2 -22 19 -23 19 -8 1 26 -31
21 -41 -8 -14 -24 23 -25 40 -1 40 7 0 23 -11 36 -25z m553 -5 c3 -11 1 -18
-4 -14 -5 3 -9 12 -9 20 0 20 7 17 13 -6z m-615 -31 c-21 -14 -26 -10 -21 11
4 16 8 18 20 9 11 -10 11 -14 1 -20z m670 -154 c-2 -2 -26 -7 -55 -13 l-52 -9
6 46 c3 25 10 54 15 64 5 10 7 37 4 60 -6 37 -1 31 40 -51 25 -52 44 -95 42
-97z m2440 176 c8 -4 12 -20 10 -36 l-3 -28 -32 27 c-18 15 -33 32 -33 37 0
11 40 12 58 0z m-6651 -113 c-2 -13 -4 -3 -4 22 0 25 2 35 4 23 2 -13 2 -33 0
-45z m7248 7 c94 -62 184 -129 184 -137 1 -4 -8 -9 -19 -13 -27 -9 -250 148
-250 176 0 26 14 21 85 -26z m1488 24 l39 -10 -32 -24 c-31 -23 -34 -23 -69
-9 -20 9 -58 25 -86 36 -27 11 -52 22 -55 25 -8 9 161 -6 203 -18z m-5247 -4
c7 -18 -12 -45 -32 -45 -14 0 -20 41 -7 53 11 12 33 7 39 -8z m4998 -4 c48
-29 167 -79 214 -89 36 -9 45 -7 79 16 32 21 35 22 20 4 -11 -11 -16 -25 -13
-31 4 -5 2 -12 -3 -15 -9 -6 -33 -80 -46 -139 -5 -27 -6 -27 -34 -13 -16 9
-40 17 -54 20 -42 7 -391 211 -396 231 -3 13 66 29 141 33 45 2 68 -3 92 -17z
m-8236 -42 c-3 -20 -5 -19 -9 9 -3 20 -2 29 4 23 5 -5 7 -19 5 -32z m8026 -28
c45 -27 175 -107 288 -179 113 -72 221 -138 239 -147 37 -19 80 -45 442 -269
189 -118 239 -153 245 -174 7 -26 6 -181 -1 -188 -6 -6 -304 175 -400 242 -91
64 -222 90 -346 70 -47 -8 -124 -17 -171 -20 -93 -5 -165 -26 -186 -54 -18
-24 -18 -24 24 -52 20 -14 40 -29 44 -35 5 -6 8 -5 8 4 0 10 9 12 33 7 19 -3
65 -8 103 -11 38 -2 96 -14 129 -25 33 -12 93 -23 132 -25 119 -6 213 -58 297
-167 64 -82 76 -109 88 -209 15 -118 -1 -230 -45 -319 -18 -35 -37 -66 -43
-68 -8 -2 -15 19 -19 58 -4 36 -20 87 -39 125 -38 77 -147 203 -188 217 -21 7
-28 17 -29 36 -1 16 -3 20 -6 10 -3 -11 -10 -15 -20 -11 -11 4 -14 2 -9 -5 4
-7 3 -12 -1 -12 -5 0 -36 32 -68 72 -117 139 -429 385 -608 478 -71 37 -124
70 -119 74 6 3 13 2 17 -4 10 -16 21 -12 22 9 2 28 -42 68 -85 77 -45 9 -39 7
-84 27 -21 10 -44 17 -53 17 -8 0 -15 2 -15 4 0 18 102 179 172 271 39 51 43
79 20 121 -8 15 -3 23 32 48 22 17 57 36 76 42 19 7 36 12 38 13 2 1 40 -21
86 -48z m-8262 -53 c2 -20 0 -34 -4 -32 -4 3 -7 26 -7 52 1 49 5 42 11 -20z
m2858 -16 c0 -21 -7 -47 -16 -58 -15 -18 -15 -18 -9 11 3 17 9 42 12 58 8 38
13 34 13 -11z m5067 -3 c-15 -12 -62 -39 -105 -62 -42 -22 -79 -43 -82 -47 -3
-3 -31 -16 -62 -29 -48 -19 -106 -61 -85 -61 4 0 -2 -17 -13 -37 -23 -43 -25
-73 -7 -92 10 -11 9 -13 -2 -9 -8 2 -24 17 -35 32 l-21 27 23 43 c31 58 93
108 183 145 41 18 108 50 149 71 85 44 97 48 57 19z m89 13 c6 -4 14 -18 17
-32 5 -19 -9 -46 -65 -130 -39 -58 -84 -122 -100 -142 -16 -21 -27 -42 -24
-47 4 -5 2 -12 -4 -16 -18 -11 -10 -26 20 -36 17 -6 30 -15 30 -20 0 -5 -12
-4 -26 1 -14 6 -42 10 -62 11 -44 1 -80 13 -65 22 5 4 25 2 44 -3 41 -12 39
-12 39 -1 0 5 -11 12 -24 15 -32 8 -88 64 -84 84 5 24 21 24 53 -2 28 -23 29
-26 16 -48 l-14 -23 27 24 c14 14 26 35 26 48 0 14 4 21 10 18 5 -3 7 0 5 7
-3 7 -37 33 -75 58 -71 46 -84 60 -52 60 9 0 53 18 97 40 70 34 81 37 96 25 8
-8 26 -15 39 -15 25 0 60 26 60 44 0 6 -7 0 -16 -12 -16 -24 -44 -28 -75 -11
-16 8 -18 13 -8 25 6 8 17 14 25 14 7 0 26 11 41 25 31 27 33 28 49 17z
m-7939 -54 c-3 -8 -6 -5 -6 6 -1 11 2 17 5 13 3 -3 4 -12 1 -19z m-70 -35 c-3
-10 -5 -2 -5 17 0 19 2 27 5 18 2 -10 2 -26 0 -35z m7033 16 c0 -5 -7 -12 -15
-15 -8 -4 -15 -11 -15 -18 0 -6 -8 -16 -19 -23 -26 -16 -56 -110 -40 -129 9
-11 8 -14 -3 -14 -8 0 -20 15 -26 33 l-10 32 -1 -42 c-1 -31 5 -49 19 -63 22
-22 19 -25 -10 -10 -33 18 -39 180 -7 180 7 0 22 16 35 36 23 35 57 55 80 47
6 -3 12 -9 12 -14z m-96 -24 c-4 -8 -8 -15 -10 -15 -2 0 -4 7 -4 15 0 8 4 15
10 15 5 0 7 -7 4 -15z m-2680 -14 c3 -5 -9 -11 -27 -14 -40 -6 -47 0 -16 12
31 13 37 13 43 2z m-4247 -23 c-3 -8 -6 -5 -6 6 -1 11 2 17 5 13 3 -3 4 -12 1
-19z m7069 8 c10 -8 16 -18 12 -22 -11 -10 -60 14 -53 26 8 14 18 13 41 -4z
m-6999 -53 c-3 -10 -5 -2 -5 17 0 19 2 27 5 18 2 -10 2 -26 0 -35z m6992 -27
c-12 -13 -34 8 -25 23 5 8 11 7 21 -2 8 -7 10 -16 4 -21z m-4758 -104 c23 -68
23 -69 -1 -77 -26 -8 -26 -20 1 -22 37 -3 35 -14 -11 -55 l-45 -40 -3 26 c-2
14 3 40 12 56 8 17 11 28 7 25 -11 -6 -21 71 -21 154 l1 66 21 -39 c11 -22 29
-64 39 -94z m4938 123 c-3 -2 -27 -16 -55 -31 -27 -14 -42 -19 -34 -10 17 17
70 46 84 46 5 0 7 -2 5 -5z m-4826 -114 c9 -10 6 -18 -13 -33 -28 -23 -27 -26
-33 72 l-5 75 20 -50 c11 -27 25 -56 31 -64z m-2336 77 c-3 -8 -6 -5 -6 6 -1
11 2 17 5 13 3 -3 4 -12 1 -19z m7023 12 c0 -5 -2 -10 -4 -10 -3 0 -8 5 -11
10 -3 6 -1 10 4 10 6 0 11 -4 11 -10z m92 -30 c-18 -17 -29 -30 -25 -30 4 0
-1 -6 -12 -13 -10 -8 -15 -19 -12 -24 4 -6 0 -13 -8 -17 -8 -3 -15 -16 -15
-28 0 -13 -5 -30 -11 -38 -8 -11 -9 -3 -6 33 5 52 44 112 88 134 37 19 37 15
1 -17z m-176 -2 c5 4 6 3 1 -2 -10 -13 -47 -18 -47 -8 0 16 13 22 25 12 7 -5
16 -6 21 -2z m99 -39 c-4 -5 -15 -34 -26 -62 -10 -29 -18 -43 -18 -32 -1 22
35 105 44 105 3 0 3 -5 0 -11z m2115 -10 c0 -6 -4 -7 -10 -4 -5 3 -10 11 -10
16 0 6 5 7 10 4 6 -3 10 -11 10 -16z m-8962 -189 l-3 -45 -23 69 c-12 38 -25
94 -27 125 l-6 56 31 -80 c22 -56 30 -93 28 -125z m2374 126 c10 -1 21 -6 25
-11 5 -4 3 -5 -4 -1 -6 3 -14 2 -18 -4 -10 -17 -41 -11 -61 11 l-19 22 30 -7
c17 -4 38 -8 47 -10z m6688 4 c13 -8 13 -10 -2 -10 -9 0 -20 5 -23 10 -8 13 5
13 25 0z m-6765 -26 c14 -6 13 -8 -5 -21 -25 -17 -47 -8 -29 13 13 16 12 16
34 8z m5105 -10 c0 -2 -7 -4 -15 -4 -8 0 -15 4 -15 10 0 5 7 7 15 4 8 -4 15
-8 15 -10z m-593 -46 c-3 -7 -5 -2 -5 12 0 14 2 19 5 13 2 -7 2 -19 0 -25z
m-2750 0 c-3 -8 -6 -5 -6 6 -1 11 2 17 5 13 3 -3 4 -12 1 -19z m-1809 -21 c3
-27 -28 -54 -48 -42 -17 11 -7 55 13 55 11 0 15 4 11 11 -4 7 -1 10 7 7 8 -2
15 -16 17 -31z m174 11 c21 -6 37 -16 35 -22 -2 -6 2 -27 8 -47 7 -19 14 -71
16 -114 l4 -79 -40 -28 c-36 -25 -46 -28 -93 -22 -38 4 -60 13 -81 32 -73 70
-104 143 -80 188 17 33 24 30 38 -16 6 -21 20 -45 31 -53 11 -8 17 -16 14 -19
-3 -4 9 -5 27 -4 18 1 35 8 37 14 2 7 8 10 13 6 14 -8 11 63 -5 101 -8 19 -27
40 -41 47 -55 25 41 39 117 16z m1795 -10 c-3 -8 -6 -5 -6 6 -1 11 2 17 5 13
3 -3 4 -12 1 -19z m122 -12 c12 -14 9 -18 -21 -29 -14 -5 -18 -1 -18 18 0 28
21 33 39 11z m292 -7 c88 -19 119 -75 80 -147 -6 -12 -9 -22 -6 -22 3 0 -1
-13 -10 -30 -15 -30 -15 -30 11 -30 14 0 44 -10 66 -22 33 -19 40 -20 48 -8 7
11 14 12 27 4 19 -11 112 -130 133 -170 18 -33 5 -42 -24 -15 -21 20 -24 20
-23 5 4 -42 -91 -58 -131 -21 l-25 22 12 -22 c16 -31 14 -43 -8 -43 -12 0 -31
19 -51 51 -18 28 -51 69 -73 91 l-40 40 -26 -30 c-49 -57 -61 -72 -57 -72 2 0
-9 -14 -25 -31 l-29 -31 -30 22 c-16 12 -35 30 -40 41 -12 22 -45 24 -80 5
-14 -8 -48 -25 -76 -39 -51 -25 -139 -95 -130 -105 3 -2 22 9 43 25 38 30 182
103 203 103 20 0 -31 -61 -74 -87 -22 -14 -53 -34 -68 -45 -39 -26 -99 -24
-118 5 -14 22 -53 122 -72 185 -18 64 26 132 132 205 25 17 48 35 52 41 15 21
8 -45 -7 -74 -9 -17 -13 -30 -10 -30 9 0 51 74 69 120 14 39 24 48 64 65 55
23 176 53 214 54 15 1 50 -4 79 -10z m1415 -4 c4 -10 11 -12 22 -6 10 5 35 11
56 12 33 3 39 1 42 -17 2 -14 -5 -24 -24 -32 -24 -10 -24 -11 -2 -5 14 4 39 7
55 8 l30 0 1 -92 c1 -51 -2 -91 -5 -88 -4 2 -13 0 -21 -6 -11 -6 -9 -9 11 -9
14 0 33 -8 42 -17 21 -25 4 -46 -53 -66 -112 -39 -155 -58 -174 -75 -23 -21
-47 -31 -86 -38 -80 -14 -126 -26 -140 -38 -8 -7 -36 -20 -62 -30 -48 -18
-138 -80 -138 -96 0 -5 -26 -28 -58 -53 -54 -41 -72 -55 -124 -99 -12 -10 -25
-18 -30 -18 -5 0 -6 -5 -2 -12 4 -6 3 -8 -3 -5 -11 7 -79 -40 -76 -52 2 -9
-211 -211 -222 -211 -12 0 -125 -93 -125 -103 0 -6 -3 -8 -6 -4 -3 3 -11 1
-18 -4 -6 -5 -61 -47 -121 -93 -126 -93 -237 -151 -310 -159 -27 -3 -77 -12
-110 -20 -33 -8 -73 -13 -88 -11 -15 1 -25 -2 -22 -7 4 -5 -8 -9 -25 -9 -18 0
-29 4 -25 10 3 6 -3 10 -15 10 -22 0 -22 -6 5 110 20 84 27 146 26 253 0 53 3
97 8 97 5 0 33 -5 62 -11 30 -6 73 -10 97 -10 30 0 41 -3 37 -12 -4 -7 -1 -5
7 3 19 23 146 122 193 151 71 44 79 48 135 74 95 44 192 97 350 190 135 80
182 107 250 142 117 60 260 163 260 188 0 7 27 40 60 73 33 34 60 66 60 71 0
5 12 19 27 31 20 16 36 20 58 16 26 -5 35 -2 52 22 37 50 127 81 139 47z m711
-53 c-3 -20 -21 -17 -32 6 -6 11 -17 27 -25 37 -9 11 -2 9 23 -7 20 -13 35
-29 34 -36z m-4721 21 c-23 -44 -63 -86 -75 -79 -28 17 0 71 47 92 40 18 44
17 28 -13z m-504 -146 c28 -56 72 -133 98 -172 26 -38 60 -92 75 -120 16 -27
65 -96 108 -153 88 -116 88 -119 2 -143 -60 -17 -105 -9 -375 69 -177 51 -231
104 -295 296 -35 103 -33 154 5 191 23 22 41 29 82 32 46 4 60 0 107 -29 56
-35 141 -125 105 -112 -10 4 -26 13 -34 20 -16 14 -84 44 -97 44 -9 0 57 -42
97 -62 27 -13 80 -64 80 -77 0 -5 -21 2 -47 15 -45 23 -116 32 -139 16 -13 -9
-25 -52 -14 -52 4 0 10 11 14 24 5 22 9 23 54 15 71 -11 142 -48 142 -74 0
-12 9 -31 20 -43 40 -42 19 -52 -65 -30 -35 9 -48 9 -57 0 -6 -6 -9 -15 -5
-19 4 -4 12 -2 18 4 7 7 22 4 50 -10 46 -22 85 -17 94 14 5 13 10 17 18 11 7
-5 29 -15 49 -21 21 -7 56 -28 79 -47 l41 -34 -31 6 c-18 4 -46 0 -71 -10 -56
-22 -113 -20 -195 8 -38 13 -62 18 -52 11 9 -7 42 -20 72 -29 52 -17 82 -17
245 -4 14 1 33 -2 44 -7 17 -7 17 -6 6 16 -23 42 -78 85 -136 105 -61 20 -104
61 -104 97 0 12 -3 33 -7 47 l-7 25 36 -27 c31 -24 35 -25 31 -8 -3 10 -21 37
-41 60 -25 30 -32 44 -23 49 9 6 4 15 -16 32 -16 13 -27 31 -25 40 2 9 -9 30
-23 47 -14 16 -25 33 -25 38 0 4 6 1 13 -8 7 -10 19 -13 30 -9 17 6 17 8 -2
32 -15 19 -17 29 -9 37 6 6 15 9 20 6 5 -3 32 -51 60 -107z m462 39 c-6 -16
-24 -23 -24 -8 0 10 22 33 27 28 2 -2 1 -11 -3 -20z m6523 18 c-3 -3 -12 -4
-19 -1 -8 3 -5 6 6 6 11 1 17 -2 13 -5z m-1793 -19 c-4 -8 -8 -15 -10 -15 -2
0 -4 7 -4 15 0 8 4 15 10 15 5 0 7 -7 4 -15z m1599 -13 c-7 -4 35 -6 92 -4
103 4 156 -1 154 -16 -4 -21 3 -34 24 -43 18 -8 23 -17 19 -35 -6 -31 -23 -31
-122 6 -45 17 -87 30 -93 29 -7 0 0 -5 16 -11 15 -5 27 -13 27 -18 0 -4 -30 3
-67 16 -38 13 -76 24 -86 24 -10 0 -16 3 -13 8 8 13 -19 40 -44 44 -14 3 4 5
40 6 35 0 59 -2 53 -6z m-1266 -54 c-3 -8 -6 -5 -6 6 -1 11 2 17 5 13 3 -3 4
-12 1 -19z m1086 -18 c12 -15 13 -20 3 -20 -7 0 -21 9 -31 20 -14 16 -15 20
-4 20 8 0 22 -9 32 -20z m-1001 -30 c27 -1 30 -2 16 -11 -12 -7 -28 -5 -53 5
-19 8 -35 18 -35 21 0 3 9 1 19 -5 11 -5 35 -10 53 -10z m239 -66 c28 -22 45
-42 42 -50 -4 -10 -10 -11 -25 -3 -11 6 -46 9 -78 7 -64 -3 -63 -4 -22 60 19
29 27 28 83 -14z m1239 26 c0 -5 -7 -7 -15 -4 -8 4 -15 8 -15 10 0 2 7 4 15 4
8 0 15 -4 15 -10z m-1975 -70 c10 -11 14 -20 8 -20 -5 0 -18 9 -28 20 -10 11
-14 20 -8 20 5 0 18 -9 28 -20z m485 -110 c6 0 8 -4 5 -10 -3 -5 -1 -10 5 -10
18 0 80 -51 74 -61 -3 -5 -2 -8 3 -7 13 4 115 -101 108 -111 -3 -6 -16 0 -28
12 -13 12 -94 84 -180 161 -86 76 -154 142 -151 147 3 6 39 -20 79 -56 40 -36
78 -65 85 -65z m650 81 c0 -6 -4 -13 -10 -16 -5 -3 -10 1 -10 9 0 9 5 16 10
16 6 0 10 -4 10 -9z m-1186 -10 c3 -5 0 -11 -8 -14 -18 -7 -56 -108 -56 -149
0 -25 3 -28 14 -19 7 6 21 32 31 57 15 41 18 43 30 27 7 -10 12 -20 10 -23 -2
-3 -6 -23 -9 -45 -4 -22 -9 -54 -12 -71 l-6 -31 -47 50 -48 50 17 31 c10 17
28 57 41 89 22 55 32 66 43 48z m1486 -16 c0 -8 -4 -15 -10 -15 -5 0 -10 7
-10 15 0 8 5 15 10 15 6 0 10 -7 10 -15z m-2086 -27 c-4 -13 -10 -25 -13 -28
-7 -5 -29 -74 -37 -114 -2 -11 3 -27 11 -37 18 -19 5 -69 -19 -69 -20 0 -26
-50 -10 -82 8 -15 13 -31 12 -35 0 -4 2 -20 5 -35 4 -16 9 -38 12 -51 3 -16
21 -32 57 -50 105 -53 112 -68 71 -159 -12 -26 -32 -79 -44 -117 -13 -39 -25
-68 -29 -66 -4 2 -18 -2 -33 -10 -15 -7 -37 -15 -49 -17 -15 -2 -24 -11 -26
-25 -2 -13 -10 -23 -17 -23 -11 0 -12 7 -4 32 5 18 8 64 8 103 l-2 70 -11 -89
c-7 -54 -16 -91 -24 -94 -20 -6 -29 38 -19 92 11 61 4 187 -12 213 -11 17 -12
17 -7 -2 20 -81 12 -243 -9 -192 -12 28 -23 20 -30 -24 -6 -36 -10 -40 -33
-37 -24 3 -27 7 -24 38 1 24 -1 31 -7 21 -5 -8 -35 -18 -67 -22 -32 -4 -60
-13 -62 -18 -2 -6 -20 -11 -40 -12 l-37 -1 42 -11 c93 -26 49 -42 -80 -29 -51
4 -91 4 -94 -1 -3 -5 7 -21 22 -37 15 -15 27 -32 27 -37 0 -4 11 -26 24 -48
12 -22 33 -62 44 -89 24 -53 14 -51 127 -30 25 5 34 2 39 -10 4 -9 5 -19 2
-21 -2 -2 -34 -6 -72 -9 -62 -4 -70 -2 -92 19 -13 13 -24 30 -24 36 0 7 -17
35 -39 63 -56 74 -91 129 -91 142 0 7 8 22 18 34 14 17 60 33 192 69 139 37
175 50 176 64 1 10 0 12 -3 3 -2 -8 -18 -16 -36 -18 -43 -7 -113 -25 -229 -59
-138 -42 -156 -74 -93 -163 19 -27 35 -53 35 -58 0 -5 20 -40 45 -78 45 -69
45 -69 101 -76 35 -4 65 -2 80 5 14 6 42 12 62 12 20 1 51 5 67 10 23 6 16 7
-27 4 -32 -2 -58 0 -58 4 0 12 23 31 39 31 8 0 43 11 78 25 35 14 84 28 111
30 71 6 103 14 119 30 8 8 27 15 43 15 33 0 86 18 77 26 -3 3 -8 5 -11 5 -4
-1 -20 6 -37 15 l-31 16 46 47 c25 26 46 51 46 57 0 5 7 20 16 32 13 18 19 21
30 11 12 -10 13 -9 7 7 -10 27 46 -20 80 -68 49 -66 27 -115 -55 -125 -24 -3
-63 -16 -89 -29 -25 -12 -62 -26 -83 -29 -20 -4 -44 -14 -52 -22 -8 -8 -29
-16 -47 -18 -36 -4 -181 -54 -156 -55 14 0 112 25 364 92 61 16 120 32 133 35
12 3 22 9 22 14 0 5 7 9 15 9 23 0 29 44 9 81 -9 19 -31 50 -48 71 -17 20 -48
57 -69 82 -43 52 -90 80 -118 73 -11 -3 -19 -2 -19 1 1 13 29 57 30 46 0 -6
15 -18 34 -26 19 -9 55 -45 82 -80 26 -35 67 -85 90 -113 40 -48 95 -145 109
-193 5 -19 1 -25 -32 -39 -70 -29 -427 -112 -664 -153 -129 -22 -265 -47 -303
-55 -70 -15 -86 -13 -86 9 0 7 -9 21 -20 31 -11 10 -53 75 -95 144 -41 69 -90
148 -109 176 -19 27 -32 53 -29 58 16 25 131 62 337 107 50 11 127 31 171 45
44 13 92 26 106 29 25 6 28 11 39 91 7 47 15 85 19 85 4 0 14 -6 22 -12 7 -7
-4 6 -26 29 -35 39 -39 47 -37 90 2 33 9 53 23 65 13 11 15 18 7 20 -8 3 1 19
23 41 20 20 39 34 42 30 13 -12 7 13 -8 34 -17 24 -7 65 20 80 9 5 19 32 25
66 11 72 15 77 49 77 16 0 42 7 57 15 37 19 37 19 28 -7z m900 -35 c-35 -142
-25 -391 25 -618 17 -78 17 -78 -6 -124 -20 -40 -57 -80 -73 -81 -3 0 -12 15
-20 33 -7 17 -21 40 -31 50 -9 10 -21 46 -28 80 -6 34 -13 73 -17 87 -3 14 -7
76 -9 138 -4 106 -3 117 20 160 16 31 25 63 25 93 0 47 42 149 61 149 5 0 9
11 9 25 0 14 7 28 15 31 8 4 15 12 15 20 0 8 6 14 14 14 12 0 12 -8 0 -57z
m-6674 -107 c13 -22 18 -36 12 -32 -7 4 -22 26 -33 49 -25 49 -12 39 21 -17z
m-155 15 c24 -48 57 -137 46 -126 -11 11 -72 155 -66 155 3 0 11 -13 20 -29z
m8907 -12 c1 6 35 -14 73 -45 90 -71 86 -67 74 -84 -8 -13 -12 -11 -29 9 -11
13 -20 19 -20 15 -1 -5 -8 4 -16 19 -8 16 -20 25 -26 21 -7 -4 -8 -3 -4 4 4 7
1 12 -6 12 -8 0 -29 14 -48 31 -19 17 -28 26 -18 20 10 -8 17 -8 20 -2z
m-2491 -56 c18 -26 47 -63 65 -83 25 -28 32 -46 36 -91 4 -49 2 -56 -13 -52
-12 4 -36 -20 -85 -84 -38 -49 -76 -99 -84 -111 l-15 -23 -38 28 c-45 32 -53
59 -39 132 10 58 121 331 134 331 4 0 22 -21 39 -47z m673 -197 c49 -46 58
-73 14 -42 -36 25 -268 249 -268 259 0 8 142 -114 254 -217z m-7252 27 c-32
-88 -35 -108 -35 -203 -1 -103 1 -110 47 -235 4 -11 -7 3 -24 30 -18 28 -36
52 -40 55 -15 10 -30 48 -20 52 6 2 5 20 -2 46 -8 32 -8 64 1 120 16 112 16
111 34 133 9 10 17 22 17 26 0 10 44 73 51 73 3 0 -10 -44 -29 -97z m8288 78
c0 -6 -4 -13 -10 -16 -5 -3 -10 1 -10 9 0 9 5 16 10 16 6 0 10 -4 10 -9z
m-4430 -17 c3 0 30 -12 61 -27 55 -25 69 -42 69 -90 0 -15 -3 -16 -21 -7 -11
7 -23 9 -27 6 -3 -3 -1 -6 4 -6 18 -1 43 -27 49 -53 7 -25 5 -27 -26 -27 -19
0 -41 -5 -49 -11 -11 -8 -3 -9 32 -6 l46 4 5 -41 c3 -22 4 -59 2 -81 -2 -22
-4 -53 -4 -70 l-1 -29 -47 45 c-74 70 -153 124 -270 186 -60 31 -110 57 -111
59 -7 5 51 123 58 119 4 -3 23 1 41 7 47 16 162 35 174 29 6 -3 12 -6 15 -7z
m316 -114 c13 -74 15 -129 10 -250 -3 -85 -9 -168 -12 -185 -4 -18 10 1 35 48
35 67 41 87 41 140 0 68 -24 242 -40 297 -13 43 -13 60 0 60 21 0 56 -161 69
-325 5 -55 9 -80 10 -56 1 34 4 42 16 37 8 -3 14 -2 12 2 -1 4 2 7 8 7 18 0
-23 -274 -49 -326 -9 -18 -16 -42 -16 -55 0 -31 -17 -39 -30 -14 -6 11 -15 18
-21 15 -5 -4 -13 4 -18 17 -5 13 -16 30 -25 37 -9 7 -13 17 -10 22 3 5 -2 6
-10 3 -20 -8 -20 -11 5 137 24 140 22 290 -5 413 -15 66 -13 97 5 79 4 -4 16
-51 25 -103z m-92 85 c3 -9 11 -69 17 -133 9 -90 9 -147 -1 -246 -6 -71 -14
-136 -17 -143 -9 -23 -21 -14 -18 15 24 237 26 285 16 378 -6 55 -14 109 -17
122 -7 25 10 31 20 7z m365 -14 c9 -6 10 -11 2 -15 -6 -4 -11 -29 -11 -55 0
-31 -5 -53 -15 -61 -8 -7 -12 -17 -8 -23 4 -6 1 -7 -6 -2 -7 4 -10 16 -8 27 3
11 3 17 -1 14 -3 -4 -17 14 -29 40 -24 50 -21 62 17 69 12 2 25 7 28 10 7 7
15 6 31 -4z m1926 -10 c3 -6 -4 -37 -15 -70 -28 -83 -26 -128 8 -173 53 -72
264 -303 274 -300 5 1 7 -2 3 -8 -3 -6 8 -24 25 -41 28 -28 36 -31 73 -26 24
3 50 9 58 12 10 4 19 -3 27 -20 7 -14 12 -27 12 -29 0 -12 -135 -44 -161 -38
-9 1 -22 15 -28 29 -17 38 -71 104 -80 98 -5 -2 -37 33 -72 78 -35 45 -103
122 -151 170 -47 49 -79 86 -70 82 13 -5 14 -3 6 5 -14 14 -6 49 38 163 28 74
40 88 53 68z m-935 -16 c-7 -8 -17 -15 -23 -15 -6 0 -2 7 9 15 25 19 30 19 14
0z m3387 -7 c18 -21 37 -58 29 -58 -1 0 -17 18 -35 40 -34 42 -29 56 6 18z
m-8527 -51 c0 -12 0 -11 -24 28 l-17 30 20 -24 c12 -13 21 -28 21 -34z m6393
-99 c5 -92 19 -148 82 -312 14 -38 24 -71 21 -73 -2 -2 -23 1 -45 8 -42 13
-100 67 -214 201 l-49 57 63 83 c86 113 100 128 119 128 15 0 18 -14 23 -92z
m1027 14 c0 -13 -12 -22 -22 -16 -10 6 -1 24 13 24 5 0 9 -4 9 -8z m-5365 -46
c18 -14 18 -15 3 -16 -10 0 -32 14 -50 31 l-33 30 30 -15 c17 -8 39 -21 50
-30z m5301 -181 c-21 -19 -35 -25 -53 -20 -21 5 -23 3 -17 -20 3 -14 2 -25 -3
-25 -14 0 -153 144 -153 159 0 8 6 11 15 7 10 -3 15 1 15 12 0 23 19 42 42 42
10 0 17 3 17 8 -5 27 10 18 83 -55 l82 -82 -28 -26z m384 164 c0 -5 -4 -9 -10
-9 -5 0 -10 7 -10 16 0 8 5 12 10 9 6 -3 10 -10 10 -16z m-7265 -89 c3 -5 2
-10 -4 -10 -5 0 -13 5 -16 10 -3 6 -2 10 4 10 5 0 13 -4 16 -10z m5 -24 c0 -2
-3 -11 -6 -20 -9 -23 -24 -20 -24 4 0 11 7 20 15 20 8 0 15 -2 15 -4z m2778
-52 c12 -8 44 -43 70 -76 26 -34 73 -91 104 -127 61 -68 68 -86 21 -53 -40 28
-126 70 -218 107 -80 32 -80 33 -117 101 -21 38 -38 74 -38 80 0 15 146 -11
178 -32z m2640 10 c5 3 12 -5 14 -19 3 -13 1 -22 -3 -19 -5 3 -9 -7 -9 -21 0
-15 -10 -41 -22 -58 -12 -17 -16 -27 -8 -22 9 5 11 4 6 -3 -4 -7 -14 -12 -22
-12 -8 0 -14 -5 -14 -11 0 -5 5 -7 12 -3 7 4 8 3 4 -4 -14 -23 -28 -12 -21 16
3 15 8 41 9 57 5 49 29 117 37 104 4 -6 11 -9 17 -5z m-2328 -19 c13 -14 26
-23 29 -20 2 3 21 -9 40 -27 19 -18 29 -24 22 -13 -7 11 29 -23 80 -75 51 -52
89 -88 85 -80 -19 37 133 -130 159 -175 90 -155 155 -336 175 -487 16 -128 17
-127 -40 -68 -27 29 -50 56 -50 61 0 5 -7 9 -16 9 -9 0 -18 9 -21 20 -3 11 -9
20 -13 20 -16 0 -144 132 -133 136 16 7 6 34 -22 61 -13 12 -31 46 -40 75 -10
29 -45 107 -78 173 -59 119 -74 163 -53 161 26 -3 17 18 -45 96 -102 130 -122
158 -112 158 5 0 20 -11 33 -25z m-3113 -87 c-3 -8 -6 -5 -6 6 -1 11 2 17 5
13 3 -3 4 -12 1 -19z m6752 -166 c-18 -26 -47 -62 -65 -79 -17 -18 -39 -48
-49 -68 -19 -34 -19 -35 1 -62 22 -31 182 -119 282 -155 56 -20 62 -26 62 -50
0 -16 -6 -28 -13 -28 -7 0 -18 -9 -25 -21 -16 -25 -56 -21 -100 10 -15 10 -80
53 -144 95 -64 42 -120 82 -124 88 -4 7 -10 28 -14 48 -5 30 -11 37 -45 48
-22 7 -44 17 -48 21 -16 16 6 41 45 53 27 8 65 35 112 80 38 37 74 68 79 68 5
0 21 9 35 21 l27 20 9 -20 c7 -17 2 -31 -25 -69z m-3543 -47 c3 -19 -1 -47
-10 -70 l-16 -38 -62 59 c-34 32 -62 61 -62 64 -1 3 9 6 21 8 12 2 26 9 32 16
9 10 20 11 51 3 34 -9 41 -16 46 -42z m5716 -2 c14 -16 27 -34 30 -42 5 -16
82 -50 117 -50 19 -1 22 -5 17 -24 -5 -21 -3 -23 24 -19 25 4 30 1 30 -16 0
-12 -5 -24 -10 -27 -27 -16 64 -75 145 -95 41 -9 68 -24 124 -66 2 -2 1 -10
-3 -19 -5 -15 -8 -15 -28 -1 -28 20 -49 21 -22 2 25 -19 11 -43 -42 -73 -64
-37 -104 -25 -108 32 -1 27 -15 32 -35 13 -11 -11 -12 -5 -6 29 6 39 4 46 -31
88 -21 25 -54 56 -74 69 -62 41 -100 83 -100 110 0 14 -6 29 -13 33 -16 10
-57 63 -57 74 0 16 16 9 42 -18z m-5650 -98 c15 -33 45 -103 68 -155 38 -86
55 -126 69 -155 2 -5 -7 0 -20 12 -27 24 -228 131 -267 142 -22 6 -22 8 24 66
54 69 77 118 76 159 -1 26 0 27 11 10 7 -11 25 -46 39 -79z m363 -48 c106
-116 192 -269 211 -374 4 -21 10 -42 13 -48 4 -5 8 -32 9 -60 l2 -50 -16 30
c-24 45 -98 169 -104 175 -14 14 -69 100 -75 119 -11 36 -91 202 -125 260
l-32 54 30 -22 c17 -12 56 -49 87 -84z m-3674 -40 c-58 -85 -92 -92 -40 -8 20
32 39 51 51 51 17 0 16 -5 -11 -43z m9062 -33 c3 -4 -1 -13 -9 -21 -17 -18
-29 -11 -21 12 7 16 19 20 30 9z m-9224 -40 c31 -7 44 -34 15 -34 -8 0 -13 4
-9 9 3 6 -7 9 -21 8 -15 -1 -29 4 -31 11 -5 14 2 15 46 6z m4293 -64 c17 -33
17 -35 0 -41 -31 -12 -128 -21 -114 -11 8 5 13 12 13 16 -3 17 1 25 20 50 28
36 59 31 81 -14z m4926 18 c-3 -7 -11 -13 -18 -13 -7 0 -15 6 -17 13 -3 7 4
12 17 12 13 0 20 -5 18 -12z m-5779 -83 c42 -10 68 -12 74 -6 13 13 50 -6 41
-21 -5 -7 -2 -9 9 -5 9 3 19 2 22 -4 4 -5 25 -19 47 -30 49 -25 215 -189 247
-243 l22 -39 -33 25 c-45 34 -96 59 -116 57 -9 -1 -37 0 -62 1 -35 2 -39 4
-20 9 38 9 36 38 -2 32 -17 -2 -7 10 15 20 20 8 19 9 -6 4 -16 -3 -26 -2 -23
3 6 11 -101 29 -224 37 -117 9 -322 -9 -469 -40 -67 -14 -130 -24 -139 -22
-23 5 103 33 276 63 168 28 387 32 517 9 43 -8 80 -13 82 -11 5 4 -179 54
-241 65 -86 16 -296 13 -404 -4 -109 -18 -248 -53 -351 -89 -103 -36 -134 -32
-36 5 130 49 332 97 486 115 186 21 268 16 469 -31 53 -13 -10 16 -103 47 -79
26 -111 31 -224 35 -146 6 -284 -7 -413 -38 -130 -31 -292 -86 -371 -125 -39
-19 -75 -34 -81 -32 -6 2 31 25 83 50 263 129 727 210 928 163z m1726 -115
c10 -11 16 -20 13 -20 -3 0 -13 9 -23 20 -10 11 -16 20 -13 20 3 0 13 -9 23
-20z m3620 -30 c-28 -12 -37 -12 -30 0 3 6 16 10 28 9 21 0 21 -1 2 -9z m-65
-34 c0 -2 -13 -18 -29 -35 -19 -20 -28 -39 -25 -49 5 -14 4 -15 -5 -2 -15 21
-14 25 15 59 22 27 44 40 44 27z m-7789 -119 c11 -22 18 -45 15 -52 -3 -8 3
-17 14 -20 10 -3 21 -13 24 -21 8 -21 -16 -69 -34 -69 -22 0 -50 -66 -38 -88
12 -23 0 -79 -15 -74 -7 2 -31 34 -54 72 -34 54 -41 74 -36 99 9 53 55 200 66
214 13 16 25 3 58 -61z m2483 -5 c37 -21 63 -41 59 -45 -3 -4 8 -7 26 -7 25 0
51 -15 114 -66 88 -70 232 -159 322 -199 36 -16 55 -31 56 -42 0 -14 2 -13 9
4 10 25 66 63 93 63 9 0 17 6 18 13 3 42 7 57 23 72 16 17 18 16 32 -1 8 -11
28 -46 44 -78 34 -70 32 -96 -12 -143 -46 -48 -73 -50 -122 -12 -68 53 -73 55
-31 11 21 -23 43 -42 48 -42 17 0 39 -31 72 -104 l34 -74 58 -6 c32 -3 72 -7
88 -9 17 -1 48 -14 70 -28 56 -36 83 -50 107 -54 12 -3 24 -9 27 -13 3 -5 24
-15 46 -23 22 -8 42 -17 45 -20 12 -15 51 -29 62 -23 6 4 16 0 22 -8 6 -8 28
-20 49 -27 20 -7 37 -14 37 -15 0 -21 -106 -306 -117 -316 -4 -3 -4 2 0 11 4
14 -1 15 -32 9 -21 -4 -43 -10 -50 -15 -10 -6 -11 -3 -2 14 7 11 10 21 7 21
-2 0 -48 -87 -101 -192 -123 -245 -191 -358 -266 -444 -32 -38 -59 -72 -59
-77 0 -21 -255 -237 -280 -237 -21 0 -6 16 93 98 119 100 136 118 241 257 65
86 108 159 195 332 61 123 111 224 111 225 0 2 -11 3 -25 3 -22 0 -32 -16 -90
-138 -97 -203 -204 -356 -379 -537 -120 -125 -258 -229 -255 -192 0 4 41 41
90 82 107 89 259 246 336 348 50 67 240 438 229 449 -2 3 -7 -4 -10 -15 -6
-16 -12 -19 -34 -13 -25 7 -30 1 -119 -142 -105 -168 -217 -332 -248 -362 -11
-11 -56 -62 -100 -113 -100 -118 -213 -218 -229 -202 -8 8 -4 17 14 31 87 69
120 102 202 197 116 135 220 275 292 392 68 109 128 230 112 224 -7 -3 -22 17
-35 46 l-23 50 31 92 c18 50 30 92 28 94 -2 2 -19 -36 -37 -84 -56 -145 -236
-484 -312 -588 -38 -51 -73 -94 -78 -94 -23 0 -475 95 -505 106 -11 4 -33 16
-48 27 -16 10 -31 17 -33 14 -3 -3 7 -14 23 -23 15 -10 30 -21 33 -25 5 -7
297 -73 370 -84 25 -3 68 -11 96 -17 l50 -10 -51 -52 c-28 -28 -69 -76 -91
-106 -63 -84 -65 -86 -119 -60 -25 12 -72 41 -104 65 -72 53 -87 61 -132 68
-20 3 -56 15 -79 26 -23 11 -79 25 -124 31 -79 11 -116 20 -301 74 -128 38
-134 39 -101 20 66 -37 258 -93 391 -114 39 -6 104 -23 146 -37 l76 -27 -36
-16 c-76 -35 -148 -60 -191 -66 -25 -3 -79 -13 -120 -22 -104 -22 -161 -22
-262 -1 -153 32 -161 35 -184 76 -12 21 -30 72 -39 113 -10 41 -33 108 -51
148 -38 84 -41 83 74 29 37 -17 70 -33 75 -35 4 -2 7 2 7 8 0 17 -142 79 -217
95 -35 7 -74 21 -86 29 -12 9 -33 24 -47 33 -79 54 -198 159 -199 176 -1 4 -3
6 -5 5 -2 -2 -14 6 -26 17 -40 35 -90 122 -101 176 -7 30 -14 47 -19 39 -13
-21 -20 16 -22 113 -1 80 -2 85 -7 37 -6 -54 -6 -55 -13 -18 -13 72 42 198
127 287 28 31 72 83 96 116 56 77 76 95 179 163 69 46 95 58 145 64 63 8 257
0 251 -11 -2 -3 26 -6 62 -6 110 0 251 -24 352 -59 163 -58 335 -133 332 -146
-2 -8 3 -10 13 -7 8 4 15 2 15 -4 0 -6 5 -7 10 -4 6 3 10 1 10 -5 0 -6 4 -9 8
-6 5 3 23 -4 40 -14 l32 -20 -4 38 c-2 20 -7 89 -11 152 -8 142 -10 148 -43
152 -15 2 -27 9 -27 16 0 19 -25 32 -63 32 -19 0 -69 19 -120 45 l-87 46 53
-6 c142 -14 158 -15 127 -5 -16 6 -79 14 -138 19 -136 10 -160 27 -51 36 67 5
88 8 101 14 1 1 31 -16 67 -37z m5341 28 c-3 -5 -14 -10 -23 -10 -15 0 -15 2
-2 10 20 13 33 13 25 0z m-8670 -40 c0 -12 9 -28 20 -36 18 -14 18 -14 -3 -14
-29 0 -28 -18 1 -30 19 -8 10 -15 -15 -11 -15 2 -8 -20 9 -26 14 -5 13 -8 -6
-15 -21 -7 -21 -9 -6 -25 16 -16 16 -17 -4 -25 -20 -7 -29 -32 -13 -41 4 -2 1
-2 -5 -1 -7 2 -13 -5 -13 -16 0 -11 -4 -20 -10 -20 -5 0 -10 6 -10 14 0 8 -10
16 -22 18 -19 2 -22 8 -20 36 2 18 -1 32 -7 32 -6 0 -11 5 -11 11 0 5 5 7 10
4 14 -8 13 21 -1 48 -7 12 -8 19 -4 15 11 -10 37 41 28 55 -3 6 -1 7 5 3 7 -4
12 -1 12 10 0 14 3 14 15 4 9 -7 19 -9 23 -5 4 4 1 10 -5 12 -23 8 -15 33 10
29 15 -2 22 -10 22 -26z m2883 0 c93 -20 263 -73 292 -92 22 -14 -9 -5 -110
30 -111 39 -269 71 -400 82 l-105 9 115 -4 c63 -3 157 -13 208 -25z m-148 -10
c27 -14 35 -65 16 -95 -13 -19 -25 -25 -53 -25 -47 0 -73 24 -73 66 0 52 59
81 110 54z m139 -44 c13 -27 14 -28 24 -10 30 54 57 32 57 -47 0 -33 -4 -59
-10 -59 -5 0 -10 26 -10 57 0 62 -10 62 -30 0 -16 -52 -41 -46 -55 13 l-10 45
-3 -47 c-2 -27 -7 -48 -12 -48 -13 0 -23 58 -15 96 5 29 10 35 28 32 12 -2 28
-16 36 -32z m5545 -2 c6 -15 4 -15 -11 -3 -10 7 -20 15 -22 16 -2 2 3 3 11 3
9 0 19 -7 22 -16z m233 -16 c-3 -8 -6 -5 -6 6 -1 11 2 17 5 13 3 -3 4 -12 1
-19z m-5573 -13 c20 -8 36 -17 36 -19 0 -3 3 -11 6 -19 9 -24 -25 -49 -57 -42
-22 5 -29 3 -29 -9 0 -9 -4 -16 -10 -16 -11 0 -14 103 -3 113 9 10 16 9 57 -8z
m-319 -70 c112 -17 396 -91 423 -111 9 -7 -50 7 -132 31 -155 46 -277 70 -411
84 -65 7 -71 9 -30 10 28 0 95 -6 150 -14z m5570 -26 c0 -16 -4 -28 -9 -26
-10 3 -16 47 -9 60 9 14 18 -4 18 -34z m215 26 c7 -8 8 -15 2 -15 -5 0 -15 7
-22 15 -7 8 -8 15 -2 15 5 0 15 -7 22 -15z m-6513 -165 c-41 -44 -109 -130
-151 -190 -69 -98 -80 -121 -103 -207 -30 -116 -36 -269 -15 -428 14 -112 16
-259 3 -320 l-9 -40 -2 40 c-2 33 -3 36 -9 16 -6 -23 -7 -22 -18 15 -6 21 -14
86 -18 144 -3 58 -11 119 -16 137 -17 53 -27 282 -18 389 12 137 65 295 131
392 31 45 49 64 56 58 1 -2 -20 -39 -47 -82 -31 -49 -64 -120 -86 -185 -33
-100 -35 -117 -39 -260 -2 -85 -2 -134 0 -109 2 25 11 95 20 155 14 103 20
120 89 260 70 142 135 244 162 253 7 2 -15 -39 -50 -90 -62 -92 -143 -250
-165 -318 -7 -19 -18 -84 -27 -143 -16 -114 -11 -197 20 -407 8 -52 16 -111
19 -130 2 -19 2 12 0 70 -3 58 -9 133 -15 167 -6 34 -9 129 -7 210 6 198 28
270 123 413 93 137 205 261 243 269 2 1 -30 -35 -71 -79z m-2100 64 c-3 -3
-12 -4 -19 -1 -8 3 -5 6 6 6 11 1 17 -2 13 -5z m8536 -18 c3 -12 -30 -32 -39
-24 -11 12 5 40 21 36 9 -2 17 -7 18 -12z m-7713 -45 c16 -39 10 -62 -17 -72
-21 -8 -23 -5 -23 24 0 40 10 77 20 77 4 0 13 -13 20 -29z m-1084 -46 c14 -19
14 -19 3 3 -15 33 0 42 19 12 9 -14 28 -36 43 -50 14 -14 31 -35 38 -47 13
-25 17 -24 -100 -43 -36 -5 -87 -16 -113 -24 -51 -16 -47 -19 -59 57 -5 30 16
39 27 11 5 -13 17 -16 62 -12 76 6 83 16 56 81 -12 29 -22 57 -22 62 1 9 7 3
46 -50z m3834 -81 c0 -9 -5 -14 -12 -12 -18 6 -21 28 -4 28 9 0 16 -7 16 -16z
m-2785 -331 c7 -25 8 -26 14 -9 7 18 9 16 18 -11 7 -20 8 -35 1 -44 -8 -12
-10 -12 -15 0 -4 10 -11 6 -27 -13 l-21 -27 -43 33 c-33 26 -42 39 -40 58 4
32 48 43 48 11 0 -33 18 -34 25 -1 8 38 30 39 40 3z m-44 -118 c16 -9 34 -27
39 -40 6 -16 17 -25 30 -25 34 0 23 -44 -12 -48 -25 -3 -28 -7 -28 -44 0 -35
6 -46 37 -73 26 -23 35 -36 30 -49 -7 -17 -8 -17 -35 -1 -15 10 -46 32 -69 49
l-42 31 -1 108 c0 68 4 107 10 107 6 0 24 -7 41 -15z m-657 -207 c25 -29 46
-58 46 -65 0 -7 4 -13 9 -13 5 0 11 -9 14 -21 3 -12 10 -18 16 -15 5 4 9 -2 9
-11 0 -10 3 -27 8 -38 7 -19 -15 -2 -108 81 l-26 24 5 -23 c3 -15 -4 -9 -22
18 -14 22 -24 48 -21 58 2 9 0 17 -5 17 -5 0 -9 9 -9 20 0 36 37 22 84 -32z
m742 -114 c16 -24 11 -49 -7 -38 -7 4 -8 -11 -4 -42 5 -35 14 -54 31 -67 29
-22 34 -70 7 -60 -10 4 -39 22 -65 40 -54 39 -63 62 -73 176 l-6 77 51 -31
c28 -17 58 -42 66 -55z m5972 -118 c41 -7 113 -14 160 -15 89 -2 109 -4 222
-23 89 -15 128 -49 180 -158 47 -99 74 -215 64 -274 -3 -23 -18 -63 -33 -91
-32 -61 -122 -152 -159 -162 -43 -10 -217 14 -328 46 -145 41 -266 56 -345 42
-71 -12 -206 -76 -364 -170 -55 -33 -122 -72 -150 -87 -27 -15 -52 -29 -55
-33 -3 -3 -25 -17 -50 -29 -191 -100 -277 -146 -287 -154 -20 -16 -16 -3 20
70 34 70 36 93 27 262 -2 48 2 81 18 127 12 34 22 73 22 87 0 22 3 24 40 19
24 -4 67 1 105 12 55 15 76 27 143 89 43 39 96 87 118 106 22 19 46 44 54 55
8 11 29 29 46 40 17 11 80 65 138 120 59 55 124 108 144 117 45 21 164 23 270
4z"/>
<path d="M1302 6540 c0 -14 2 -19 5 -12 2 6 2 18 0 25 -3 6 -5 1 -5 -13z"/>
<path d="M3430 7606 c0 -2 8 -10 18 -17 15 -13 16 -12 3 4 -13 16 -21 21 -21
13z"/>
<path d="M4435 6926 c10 -14 19 -26 22 -26 7 0 -17 39 -28 46 -6 3 -3 -5 6
-20z"/>
<path d="M5615 6580 c-8 -13 5 -13 25 0 13 8 13 10 -2 10 -9 0 -20 -4 -23 -10z"/>
<path d="M4195 6280 c2 -14 5 -54 6 -90 1 -51 3 -59 9 -35 4 17 8 24 9 16 0
-8 4 -11 8 -8 6 6 -5 53 -28 117 l-9 25 5 -25z"/>
<path d="M4332 6150 c0 -19 2 -27 5 -17 2 9 2 25 0 35 -3 9 -5 1 -5 -18z"/>
<path d="M4191 6083 c0 -12 -4 -30 -7 -40 -5 -17 -5 -17 6 0 6 10 9 28 7 40
-4 22 -4 22 -6 0z"/>
<path d="M3733 6075 c-46 -14 -128 -59 -139 -76 -3 -6 12 1 34 15 48 30 140
58 185 56 17 -1 37 -1 42 0 6 1 14 2 18 1 5 -1 6 3 2 9 -9 14 -91 11 -142 -5z"/>
<path d="M4133 5972 c-23 -8 -71 -62 -54 -62 6 0 18 11 27 25 9 14 20 23 24
20 4 -3 13 2 20 10 7 8 11 15 9 14 -2 -1 -14 -4 -26 -7z"/>
<path d="M4758 5943 c-3 -67 -4 -78 -12 -101 -4 -12 -19 -28 -33 -36 -37 -19
-15 -26 27 -8 19 8 30 17 23 19 -8 3 -7 16 7 48 10 24 23 60 29 79 9 34 8 36
-15 36 -21 0 -24 -5 -26 -37z"/>
<path d="M3730 5865 c-33 -19 -21 -19 21 0 19 8 27 14 19 14 -8 0 -26 -6 -40
-14z"/>
<path d="M3675 5840 c-3 -6 1 -7 9 -4 18 7 21 14 7 14 -6 0 -13 -4 -16 -10z"/>
<path d="M4740 5062 c0 -6 -20 -21 -45 -33 -25 -12 -43 -24 -41 -26 6 -6 83
35 91 48 4 5 4 13 1 16 -3 4 -6 1 -6 -5z"/>
<path d="M4580 4950 c-8 -5 -10 -10 -5 -10 6 0 17 5 25 10 8 5 11 10 5 10 -5
0 -17 -5 -25 -10z"/>
<path d="M4500 4930 c0 -6 11 -8 28 -4 39 10 40 14 4 14 -18 0 -32 -5 -32 -10z"/>
<path d="M4515 4800 c-3 -6 1 -7 9 -4 18 7 21 14 7 14 -6 0 -13 -4 -16 -10z"/>
<path d="M3755 4510 c10 -11 20 -20 23 -20 3 0 -3 9 -13 20 -10 11 -20 20 -23
20 -3 0 3 -9 13 -20z"/>
<path d="M9486 6121 c5 -6 62 -37 128 -70 92 -48 128 -61 163 -61 58 0 47 16
-18 24 -32 4 -93 28 -160 61 -107 54 -132 64 -113 46z"/>
<path d="M9310 5813 c-59 -39 -160 -159 -160 -190 0 -8 18 12 41 45 47 71 133
152 160 152 23 0 40 -10 172 -103 68 -47 97 -74 97 -88 0 -55 -144 -211 -194
-211 -30 0 -107 36 -129 60 -14 16 -11 23 44 97 33 44 74 96 92 115 l32 35
-38 -35 c-29 -26 -134 -155 -153 -188 -2 -2 -30 15 -63 37 -81 55 -68 31 23
-44 77 -62 140 -94 191 -94 40 -1 92 42 150 123 58 81 68 108 50 133 -36 51
-223 173 -264 172 -14 0 -37 -7 -51 -16z"/>
<path d="M9680 5180 c8 -5 26 -9 40 -9 l25 1 -25 8 c-14 4 -32 8 -40 9 -13 1
-13 0 0 -9z"/>
<path d="M9760 5166 c0 -2 20 -14 45 -26 24 -12 66 -45 91 -73 26 -29 42 -42
36 -31 -22 42 -87 101 -129 117 -24 9 -43 15 -43 13z"/>
<path d="M9660 5156 c0 -2 19 -19 43 -37 39 -30 40 -31 17 -5 -24 26 -60 52
-60 42z"/>
<path d="M9952 5109 c72 -90 103 -146 124 -229 12 -47 23 -76 23 -65 2 58 -49
204 -78 223 -12 8 -21 21 -21 28 0 17 -29 52 -55 66 -16 9 -15 5 7 -23z"/>
<path d="M9961 4954 c0 -11 3 -14 6 -6 3 7 2 16 -1 19 -3 4 -6 -2 -5 -13z"/>
<path d="M9915 4906 c10 -14 19 -26 22 -26 7 0 -17 39 -28 46 -6 3 -3 -5 6
-20z"/>
<path d="M8040 5829 c-7 -11 -10 -23 -7 -25 2 -2 9 7 15 21 14 30 7 33 -8 4z"/>
<path d="M6250 5208 c11 -12 20 -25 20 -30 0 -4 5 -8 10 -8 6 0 1 14 -12 30
-12 17 -26 30 -30 30 -5 0 0 -10 12 -22z"/>
<path d="M6136 5148 c3 -5 10 -6 15 -3 13 9 11 12 -6 12 -8 0 -12 -4 -9 -9z"/>
<path d="M6287 5153 c-3 -5 6 -16 20 -27 l25 -19 -17 27 c-19 28 -21 30 -28
19z"/>
<path d="M6161 5109 c12 -23 15 -23 22 -5 3 8 -2 16 -14 19 -16 4 -17 2 -8
-14z"/>
<path d="M6235 5090 c3 -5 15 -10 26 -10 10 0 19 5 19 10 0 6 -12 10 -26 10
-14 0 -23 -4 -19 -10z"/>
<path d="M7403 5474 l-28 -26 33 22 c29 20 39 30 28 30 -3 0 -18 -12 -33 -26z"/>
<path d="M7472 5311 c-73 -53 -65 -68 24 -45 67 17 97 37 49 32 -26 -3 -30 0
-29 20 0 12 0 22 -1 22 -1 0 -20 -13 -43 -29z m37 -24 c-2 -2 -17 -7 -34 -11
l-30 -6 24 20 c17 14 27 18 34 11 6 -6 9 -12 6 -14z"/>
<path d="M7580 5260 c-8 -5 -10 -10 -5 -10 6 0 17 5 25 10 8 5 11 10 5 10 -5
0 -17 -5 -25 -10z"/>
<path d="M2616 5262 c-3 -5 11 -8 29 -8 19 1 35 4 35 9 0 10 -58 9 -64 -1z"/>
<path d="M2571 5184 c-1 -42 26 -129 45 -145 13 -11 12 -4 -5 28 -11 23 -25
66 -30 95 -6 37 -9 43 -10 22z"/>
<path d="M2670 4986 c0 -2 8 -10 18 -17 15 -13 16 -12 3 4 -13 16 -21 21 -21
13z"/>
<path d="M7435 4500 c4 -6 -4 -20 -17 -31 -13 -11 -16 -17 -8 -13 8 4 23 14
32 22 16 13 18 13 24 -3 4 -10 0 -36 -8 -59 -28 -73 -29 -82 -3 -31 29 58 31
87 9 109 -17 18 -39 22 -29 6z"/>
<path d="M7271 4404 c0 -11 3 -14 6 -6 3 7 2 16 -1 19 -3 4 -6 -2 -5 -13z"/>
<path d="M7660 4194 c0 -5 7 -19 15 -30 8 -10 15 -14 15 -8 0 5 -7 19 -15 30
-8 10 -15 14 -15 8z"/>
<path d="M5128 4683 c7 -3 16 -2 19 1 4 3 -2 6 -13 5 -11 0 -14 -3 -6 -6z"/>
<path d="M5170 4670 c8 -5 22 -9 30 -9 10 0 8 3 -5 9 -27 12 -43 12 -25 0z"/>
<path d="M5571 4284 c0 -11 3 -14 6 -6 3 7 2 16 -1 19 -3 4 -6 -2 -5 -13z"/>
<path d="M7641 4425 c72 -79 153 -176 189 -227 18 -27 35 -48 38 -48 18 0
-153 212 -225 280 l-48 45 46 -50z"/>
<path d="M7922 4353 c99 -108 148 -157 148 -148 0 13 -152 175 -164 175 -6 0
2 -12 16 -27z"/>
<path d="M8785 4441 c-3 -5 -1 -12 5 -16 12 -7 30 2 30 16 0 12 -27 12 -35 0z"/>
<path d="M8850 4440 c0 -5 5 -10 11 -10 5 0 7 5 4 10 -3 6 -8 10 -11 10 -2 0
-4 -4 -4 -10z"/>
<path d="M8875 4400 c-3 -5 -1 -10 4 -10 6 0 11 5 11 10 0 6 -2 10 -4 10 -3 0
-8 -4 -11 -10z"/>
<path d="M5240 4226 c0 -2 8 -10 18 -17 15 -13 16 -12 3 4 -13 16 -21 21 -21
13z"/>
<path d="M5295 4200 c10 -11 20 -20 23 -20 3 0 -3 9 -13 20 -10 11 -20 20 -23
20 -3 0 3 -9 13 -20z"/>
<path d="M5345 4140 c10 -11 20 -20 23 -20 3 0 -3 9 -13 20 -10 11 -20 20 -23
20 -3 0 3 -9 13 -20z"/>
<path d="M5370 4106 c0 -2 8 -10 18 -17 15 -13 16 -12 3 4 -13 16 -21 21 -21
13z"/>
<path d="M5375 3610 c-3 -5 1 -10 10 -10 9 0 13 5 10 10 -3 6 -8 10 -10 10 -2
0 -7 -4 -10 -10z"/>
<path d="M5520 3510 c8 -5 20 -10 25 -10 6 0 3 5 -5 10 -8 5 -19 10 -25 10 -5
0 -3 -5 5 -10z"/>
<path d="M5590 3410 c8 -5 20 -10 25 -10 6 0 3 5 -5 10 -8 5 -19 10 -25 10 -5
0 -3 -5 5 -10z"/>
<path d="M2732 3259 c-18 -77 -13 -91 9 -25 12 34 17 62 11 68 -5 5 -13 -13
-20 -43z"/>
<path d="M5405 3206 c17 -14 33 -25 37 -26 4 0 10 -9 13 -21 4 -11 9 -18 12
-15 10 10 -24 51 -58 70 l-34 18 30 -26z"/>
<path d="M5473 3081 c4 -17 16 -44 27 -59 26 -35 25 -118 0 -116 -11 1 -15
-10 -15 -36 -1 -37 0 -38 43 -44 43 -6 162 -70 162 -88 0 -5 5 -6 10 -3 6 3
13 0 16 -8 3 -8 26 -20 52 -27 26 -7 52 -16 57 -19 18 -10 86 -11 104 -1 11 5
22 5 27 0 5 -5 20 -7 32 -3 23 6 23 6 -10 41 -18 19 -63 60 -100 92 -36 32
-64 61 -61 64 8 8 -18 96 -28 96 -12 0 -11 -14 0 -26 6 -5 4 -16 -4 -28 -13
-17 -17 -16 -72 26 -58 44 -142 103 -210 147 l-36 23 6 -31z m324 -183 c-3 -8
-6 -5 -6 6 -1 11 2 17 5 13 3 -3 4 -12 1 -19z"/>
<path d="M4648 3043 c7 -3 16 -2 19 1 4 3 -2 6 -13 5 -11 0 -14 -3 -6 -6z"/>
<path d="M5480 2975 c0 -25 5 -45 10 -45 6 0 10 20 10 45 0 25 -4 45 -10 45
-5 0 -10 -20 -10 -45z"/>
<path d="M5243 2893 c9 -2 23 -2 30 0 6 3 -1 5 -18 5 -16 0 -22 -2 -12 -5z"/>
<path d="M4918 2883 c12 -2 30 -2 40 0 9 3 -1 5 -23 4 -22 0 -30 -2 -17 -4z"/>
<path d="M5308 2883 c7 -3 16 -2 19 1 4 3 -2 6 -13 5 -11 0 -14 -3 -6 -6z"/>
<path d="M4698 2823 c7 -3 16 -2 19 1 4 3 -2 6 -13 5 -11 0 -14 -3 -6 -6z"/>
<path d="M5398 2823 c6 -2 18 -2 25 0 6 3 1 5 -13 5 -14 0 -19 -2 -12 -5z"/>
<path d="M4635 2810 c-3 -6 1 -7 9 -4 18 7 21 14 7 14 -6 0 -13 -4 -16 -10z"/>
<path d="M4465 2752 c-57 -26 -156 -82 -145 -82 6 0 202 100 209 106 8 8 -5 3
-64 -24z"/>
<path d="M3969 2733 c-13 -16 -12 -17 4 -4 16 13 21 21 13 21 -2 0 -10 -8 -17
-17z"/>
<path d="M3931 2687 c-13 -21 -12 -21 5 -5 10 10 16 20 13 22 -3 3 -11 -5 -18
-17z"/>
<path d="M6232 2630 c0 -14 2 -19 5 -12 2 6 2 18 0 25 -3 6 -5 1 -5 -13z"/>
<path d="M6231 2558 c0 -15 -8 -46 -17 -68 -9 -23 -14 -43 -11 -46 9 -9 39 94
34 118 -4 20 -4 20 -6 -4z"/>
<path d="M4143 2538 c-35 -37 -57 -77 -49 -86 3 -3 6 -1 6 5 0 6 21 34 46 62
50 55 47 72 -3 19z"/>
<path d="M3855 2419 c4 -51 23 -124 30 -117 2 2 -5 41 -16 88 -17 76 -18 79
-14 29z"/>
<path d="M3990 2261 c-12 -24 -14 -89 -1 -75 9 10 24 94 16 94 -2 0 -9 -9 -15
-19z"/>
<path d="M4165 2235 c42 -38 189 -121 182 -102 -2 6 -35 27 -74 48 -39 20 -89
49 -110 64 l-38 27 40 -37z"/>
<path d="M4950 2196 c0 -2 8 -10 18 -17 15 -13 16 -12 3 4 -13 16 -21 21 -21
13z"/>
<path d="M6375 2169 c-4 -6 -5 -12 -2 -15 2 -3 7 2 10 11 7 17 1 20 -8 4z"/>
<path d="M4490 2090 c0 -4 44 -21 98 -38 53 -18 153 -50 220 -72 68 -22 134
-40 145 -40 12 0 60 -25 106 -55 46 -31 86 -54 88 -52 2 3 -30 27 -70 55 -51
35 -98 57 -148 71 -41 11 -123 36 -184 56 -216 70 -255 82 -255 75z"/>
<path d="M5371 2056 c2 -2 22 -6 44 -9 28 -5 34 -4 20 3 -19 8 -73 14 -64 6z"/>
<path d="M5538 2033 c7 -3 16 -2 19 1 4 3 -2 6 -13 5 -11 0 -14 -3 -6 -6z"/>
<path d="M5618 2023 c6 -2 18 -2 25 0 6 3 1 5 -13 5 -14 0 -19 -2 -12 -5z"/>
<path d="M5717 2013 c18 -2 50 -2 70 0 21 2 7 4 -32 4 -38 0 -55 -2 -38 -4z"/>
<path d="M4583 1707 c0 -9 2 -15 4 -13 2 2 25 -19 51 -48 26 -28 73 -78 104
-111 l57 -60 -41 97 c-43 101 -64 130 -28 39 11 -28 20 -54 20 -58 0 -3 -37
34 -83 83 -51 54 -84 82 -84 71z"/>
<path d="M4607 3273 c-13 -12 -7 -52 9 -61 38 -21 80 21 54 53 -13 15 -51 20
-63 8z"/>
<path d="M4990 3190 c0 -15 7 -20 26 -20 30 0 28 19 -4 31 -18 7 -22 5 -22
-11z"/>
<path d="M3671 1990 c0 -44 3 -60 9 -49 5 9 5 36 1 65 l-9 49 -1 -65z"/>
<path d="M2600 2363 c0 -4 5 -15 10 -23 8 -13 10 -13 10 2 0 9 -4 20 -10 23
-5 3 -10 3 -10 -2z"/>
<path d="M1340 8530 c108 -15 232 -80 361 -190 35 -29 50 -38 45 -25 -16 37
-18 63 -7 69 18 11 13 26 -8 26 -19 0 -51 34 -51 53 0 5 17 25 37 43 l37 34
-235 -1 c-149 -1 -214 -4 -179 -9z"/>
<path d="M1872 8520 c7 -11 17 -20 22 -20 5 0 1 9 -9 20 -10 11 -20 20 -22 20
-2 0 2 -9 9 -20z"/>
<path d="M7366 8481 c72 -68 133 -116 139 -109 8 8 -171 168 -187 168 -7 -1
14 -27 48 -59z"/>
<path d="M11305 8519 c65 -35 267 -149 315 -178 25 -16 90 -54 145 -86 55 -32
107 -64 115 -70 17 -14 108 -65 115 -65 3 0 5 95 5 210 l0 210 -367 0 -368 0
40 -21z"/>
<path d="M1959 8423 c33 -44 49 -58 56 -51 3 2 -16 24 -42 49 l-47 44 33 -42z"/>
<path d="M6607 8323 c-12 -12 -7 -22 8 -17 8 4 15 10 15 15 0 11 -14 12 -23 2z"/>
<path d="M2245 8070 c10 -11 20 -20 23 -20 3 0 -3 9 -13 20 -10 11 -20 20 -23
20 -3 0 3 -9 13 -20z"/>
<path d="M2280 8025 c7 -9 15 -13 17 -11 7 7 -7 26 -19 26 -6 0 -6 -6 2 -15z"/>
<path d="M3410 8020 c0 -6 52 -10 138 -9 102 1 126 4 92 10 -66 11 -230 11
-230 -1z"/>
<path d="M1345 7941 c8 -50 -13 -101 -54 -130 -42 -30 -120 -38 -546 -52 -206
-6 -369 -16 -395 -23 -28 -8 -58 -10 -80 -5 -33 8 -166 4 -237 -7 -27 -4 -33
-10 -33 -29 0 -22 2 -23 63 -19 34 3 87 7 117 10 115 11 362 25 540 29 102 3
229 10 283 15 54 6 153 10 221 10 117 0 124 1 119 19 -3 10 2 30 10 42 21 35
29 106 17 145 -16 47 -33 44 -25 -5z"/>
<path d="M4074 7950 c38 -16 71 -28 73 -26 5 4 -115 56 -130 56 -7 0 19 -14
57 -30z"/>
<path d="M8041 7945 c18 -18 85 -29 263 -45 72 -6 189 -22 260 -35 155 -28
437 -68 442 -62 3 2 -24 10 -58 16 -35 7 -83 19 -108 26 -61 18 -205 41 -380
60 -80 9 -191 25 -248 35 -57 11 -122 20 -145 20 -37 0 -40 -2 -26 -15z"/>
<path d="M0 7830 c0 -38 3 -70 6 -70 4 0 22 14 42 31 19 17 61 42 93 56 103
45 63 61 -43 18 -34 -14 -63 -25 -64 -25 -2 0 -1 14 3 30 5 26 3 30 -16 30
-19 0 -21 -5 -21 -70z"/>
<path d="M4260 7866 c0 -3 14 -12 30 -21 17 -9 30 -13 30 -11 0 3 -13 12 -30
21 -16 9 -30 13 -30 11z"/>
<path d="M4330 7826 c0 -3 21 -17 48 -32 26 -15 81 -52 124 -81 82 -57 90 -61
82 -38 -4 8 -12 15 -19 15 -7 0 -41 20 -76 43 -79 54 -159 101 -159 93z"/>
<path d="M7640 7810 c0 -11 7 -23 15 -27 21 -8 28 1 20 26 -8 27 -35 27 -35 1z"/>
<path d="M7704 7819 c-10 -17 13 -36 27 -22 12 12 4 33 -11 33 -5 0 -12 -5
-16 -11z"/>
<path d="M7586 7805 c4 -8 10 -15 15 -15 5 0 9 7 9 15 0 8 -7 15 -15 15 -9 0
-12 -6 -9 -15z"/>
<path d="M9248 7798 c5 -5 16 -8 23 -6 8 3 3 7 -10 11 -17 4 -21 3 -13 -5z"/>
<path d="M9318 7793 c6 -2 18 -2 25 0 6 3 1 5 -13 5 -14 0 -19 -2 -12 -5z"/>
<path d="M4311 7787 c2 -1 13 -9 24 -17 19 -14 19 -14 6 3 -7 9 -18 17 -24 17
-6 0 -8 -1 -6 -3z"/>
<path d="M9150 7776 c0 -2 80 -23 178 -46 97 -23 209 -51 247 -62 39 -11 78
-19 88 -19 9 0 17 -5 17 -10 0 -6 9 -7 20 -4 12 4 20 2 20 -5 0 -6 10 -8 26
-4 20 5 25 4 20 -5 -6 -9 0 -10 20 -5 19 5 25 4 20 -5 -6 -9 0 -10 21 -6 22 5
25 4 13 -4 -11 -8 -7 -10 20 -5 28 4 32 3 20 -6 -12 -9 -11 -10 7 -5 12 3 46
-1 74 -9 29 -9 57 -16 63 -15 40 2 -180 61 -549 148 -269 63 -325 74 -325 67z"/>
<path d="M7205 7707 c-31 -14 -95 -80 -95 -97 0 -6 25 4 55 21 72 41 149 48
265 24 162 -32 485 -142 713 -242 95 -41 260 -113 367 -159 250 -108 408 -181
440 -202 14 -9 47 -22 73 -29 26 -7 102 -38 169 -69 243 -112 558 -235 670
-260 38 -9 66 -20 62 -25 -3 -5 -41 -9 -84 -9 -67 0 -78 -2 -73 -15 7 -20 52
-43 184 -95 109 -44 222 -100 215 -107 -2 -3 -19 3 -36 12 -30 16 -215 85
-226 85 -11 0 -64 -66 -64 -80 0 -8 12 2 26 22 28 40 44 41 44 5 0 -35 10 -41
100 -66 274 -77 354 -112 495 -214 135 -98 220 -193 312 -347 72 -120 117
-214 144 -297 12 -40 26 -68 30 -62 7 12 6 16 44 -171 24 -121 27 -149 22
-275 -4 -106 -3 -129 5 -96 9 40 10 42 23 23 22 -31 135 -102 517 -327 60 -35
130 -79 250 -157 75 -48 139 -88 142 -88 3 0 6 195 6 434 l0 434 -27 8 c-16 4
-31 7 -35 6 -5 -1 -7 2 -5 7 1 5 -7 17 -18 25 -11 8 -15 16 -8 16 6 0 18 -7
26 -15 8 -8 17 -11 21 -8 3 3 8 -2 12 -11 5 -13 9 -14 20 -5 18 14 21 359 3
359 -5 0 -8 -4 -4 -10 7 -11 -25 -50 -40 -50 -6 0 -20 6 -31 14 -19 14 -19 15
4 36 13 12 30 19 38 16 23 -9 16 10 -11 28 -14 9 -30 14 -35 11 -6 -3 -10 -2
-10 4 0 14 -58 43 -70 36 -5 -3 -7 -12 -3 -20 4 -12 -4 -15 -37 -15 -25 0 -39
4 -35 10 3 6 13 10 21 10 8 0 12 4 9 10 -3 6 1 7 9 4 9 -3 16 -2 16 4 0 13
-56 36 -69 27 -6 -3 -11 -2 -11 4 0 5 -16 15 -35 21 -28 9 -39 9 -57 -4 -12
-9 -17 -16 -10 -16 17 0 15 -27 -2 -33 -8 -3 -22 0 -31 7 -16 12 -15 14 10 34
16 12 26 24 24 26 -11 9 -73 25 -80 20 -5 -3 -9 -1 -9 5 0 5 -10 12 -22 14
-13 2 -6 3 14 1 52 -6 292 -81 352 -111 28 -14 66 -36 84 -50 l32 -24 -2 298
-3 298 -118 68 c-413 236 -723 366 -977 411 -19 4 -75 14 -125 22 -164 29
-330 29 -511 0 -282 -45 -316 -44 -474 6 -207 66 -422 156 -900 378 -573 265
-919 408 -1156 478 -230 69 -473 105 -529 79z m4135 -1827 c69 -7 64 -13 -8
-10 -40 1 -43 0 -38 -18 8 -23 -5 -35 -28 -26 -21 8 -21 24 0 24 9 0 14 6 12
13 -7 19 -164 17 -160 -2 3 -12 0 -12 -12 -2 -11 10 -35 11 -86 6 -38 -4 -70
-10 -70 -14 0 -3 -20 -6 -44 -6 -79 0 -33 15 90 29 132 15 246 17 344 6z m130
-29 c-7 -14 -6 -21 3 -25 6 -3 -1 -3 -18 0 -29 5 -29 5 -7 -8 12 -8 19 -17 16
-21 -10 -10 -52 -9 -58 2 -3 4 7 6 22 3 26 -4 26 -4 7 11 -20 15 -20 16 5 25
l25 10 -25 10 c-25 11 -24 11 8 11 29 1 32 -1 22 -18z m-326 -26 c-5 -11 -9
-12 -19 -2 -9 8 -10 14 -2 19 16 9 27 0 21 -17z m-156 -3 c2 -7 -4 -12 -13
-12 -9 0 -14 -4 -11 -9 4 -5 -3 -7 -14 -4 -18 5 -30 25 -12 22 4 -1 16 -1 27
0 17 1 18 3 5 12 -12 9 -12 10 -1 7 8 -3 17 -10 19 -16z m127 -10 c-3 -3 -11
0 -18 7 -9 10 -8 11 6 5 10 -3 15 -9 12 -12z m335 -97 c19 -22 -5 -48 -31 -34
-10 5 -19 6 -19 2 0 -13 -20 21 -20 35 0 17 55 15 70 -3z m446 -203 c13 -9 24
-22 24 -28 0 -6 -23 -41 -51 -79 -48 -63 -53 -67 -82 -61 -42 9 -77 33 -77 54
0 10 26 46 57 80 61 68 76 72 129 34z m-552 -41 c3 -5 -2 -15 -12 -22 -15 -12
-16 -12 -5 2 7 9 10 19 6 22 -3 4 -4 7 0 7 3 0 8 -4 11 -9z m-66 -41 c-7 -11
-19 -22 -28 -25 -8 -4 -5 4 8 18 12 13 19 27 15 32 -5 4 -2 5 4 1 10 -5 10
-11 1 -26z m88 1 c-17 -18 -17 -20 1 -31 17 -11 17 -11 -1 -5 -12 3 -28 -3
-43 -17 -19 -17 -23 -19 -17 -5 5 15 1 17 -32 12 -34 -4 -36 -4 -14 6 14 5 27
10 30 10 3 1 11 6 19 12 7 6 20 12 28 13 9 2 20 7 26 13 19 19 21 12 3 -8z
m49 -11 c-3 -5 -11 -10 -16 -10 -6 0 -7 5 -4 10 3 6 11 10 16 10 6 0 7 -4 4
-10z m35 -72 c0 -10 -49 16 -54 29 -3 7 7 4 25 -5 16 -9 29 -20 29 -24z m-72
17 c2 -6 8 -15 13 -22 7 -7 6 -14 -3 -19 -7 -4 -10 -4 -6 1 12 13 -13 37 -26
26 -8 -7 -12 -4 -12 8 0 18 28 23 34 6z m237 -104 c3 -5 2 -12 -3 -15 -5 -3
-9 1 -9 9 0 17 3 19 12 6z m75 -59 c-11 -2 -18 -8 -15 -13 4 -5 1 -9 -4 -9 -6
0 -11 5 -11 12 0 6 -10 3 -22 -8 -14 -12 -18 -13 -10 -3 6 9 9 18 7 21 -3 3 5
5 17 4 14 0 22 4 20 12 -2 10 2 10 18 0 l21 -13 -21 -3z m60 -18 c0 -2 -7 -4
-15 -4 -8 0 -15 4 -15 10 0 5 7 7 15 4 8 -4 15 -8 15 -10z m-80 -28 c-7 -7
-13 -7 -20 0 -6 6 -3 10 10 10 13 0 16 -4 10 -10z m106 -15 c-4 -6 -15 -10
-24 -10 -15 1 -14 2 1 6 12 3 16 10 12 21 -5 13 -3 14 6 5 6 -6 8 -16 5 -22z"/>
<path d="M11275 5840 c-3 -5 -1 -10 4 -10 6 0 11 5 11 10 0 6 -2 10 -4 10 -3
0 -8 -4 -11 -10z"/>
<path d="M11815 5490 c-10 -11 -22 -17 -28 -13 -6 3 -7 1 -3 -5 4 -6 -3 -26
-16 -43 -23 -30 -23 -31 -4 -45 11 -8 23 -14 27 -14 8 0 93 109 88 114 -2 2
-14 8 -25 14 -18 9 -25 8 -39 -8z"/>
<path d="M11310 5400 c0 -5 4 -10 9 -10 6 0 13 5 16 10 3 6 -1 10 -9 10 -9 0
-16 -4 -16 -10z"/>
<path d="M10268 7653 c7 -3 16 -2 19 1 4 3 -2 6 -13 5 -11 0 -14 -3 -6 -6z"/>
<path d="M7237 7644 c-4 -4 -7 -15 -7 -24 0 -10 -17 -37 -37 -60 -79 -89 -75
-95 132 -161 l125 -40 49 33 c32 20 65 55 92 96 37 55 40 65 28 78 -8 7 -82
28 -164 45 -185 39 -208 43 -218 33z m132 -155 c31 -11 42 -29 17 -29 -23 0
-76 22 -76 31 0 12 20 11 59 -2z"/>
<path d="M10308 7643 c7 -3 16 -2 19 1 4 3 -2 6 -13 5 -11 0 -14 -3 -6 -6z"/>
<path d="M10398 7623 c6 -2 18 -2 25 0 6 3 1 5 -13 5 -14 0 -19 -2 -12 -5z"/>
<path d="M10495 7603 c316 -79 548 -134 553 -129 3 3 2 6 -2 6 -5 0 -85 20
-180 44 -196 51 -397 96 -417 95 -8 -1 13 -8 46 -16z"/>
<path d="M10025 7535 c56 -22 195 -57 208 -52 6 2 -36 15 -93 30 -143 37 -161
40 -115 22z"/>
<path d="M9480 7530 c8 -5 20 -10 25 -10 6 0 3 5 -5 10 -8 5 -19 10 -25 10 -5
0 -3 -5 5 -10z"/>
<path d="M4810 7441 c47 -43 87 -77 90 -74 6 7 -151 153 -165 153 -5 0 28 -36
75 -79z"/>
<path d="M9695 7465 c73 -23 154 -41 145 -32 -6 6 -197 57 -207 56 -5 -1 24
-11 62 -24z"/>
<path d="M10280 7478 c-13 -8 -12 -9 1 -5 9 3 21 1 26 -4 5 -5 25 -10 46 -11
20 -2 37 -6 37 -9 0 -3 19 -12 43 -18 23 -7 60 -21 82 -31 60 -26 77 -31 112
-36 53 -7 353 -101 423 -132 36 -16 106 -42 155 -57 50 -16 94 -32 100 -37 5
-4 15 -8 22 -8 13 0 224 -79 268 -100 27 -13 396 -160 402 -160 2 0 3 17 1 37
-3 36 -4 37 -108 82 -58 24 -193 75 -300 112 -107 37 -266 92 -353 123 -87 31
-209 69 -270 85 -62 16 -173 48 -247 71 -172 53 -209 62 -222 54 -6 -4 -8 -3
-5 3 7 10 -73 30 -143 36 -20 2 -40 6 -46 9 -5 4 -16 2 -24 -4z"/>
<path d="M6389 7463 c-13 -16 -12 -17 4 -4 9 7 17 15 17 17 0 8 -8 3 -21 -13z"/>
<path d="M11095 7455 c22 -7 81 -25 130 -40 170 -51 280 -86 380 -123 55 -20
106 -35 114 -34 7 2 10 -1 6 -7 -3 -6 0 -9 8 -5 7 2 69 -16 137 -41 106 -39
147 -49 128 -30 -12 12 -561 192 -776 254 -132 38 -216 56 -127 26z"/>
<path d="M10071 7356 c2 -2 99 -35 214 -74 116 -38 234 -79 262 -91 39 -15 62
-19 89 -13 34 7 31 8 -68 39 -57 17 -170 55 -252 83 -81 29 -171 54 -199 56
-27 2 -48 2 -46 0z"/>
<path d="M9900 7239 c0 -5 4 -9 9 -9 5 0 17 -3 27 -7 11 -4 15 -3 11 4 -9 14
-47 24 -47 12z"/>
<path d="M9875 7220 c11 -5 27 -9 35 -9 9 0 8 4 -5 9 -11 5 -27 9 -35 9 -9 0
-8 -4 5 -9z"/>
<path d="M9972 7222 c-9 -6 -6 -11 11 -19 18 -8 28 -8 36 0 8 8 11 7 11 -5 0
-19 53 -40 77 -31 10 4 14 2 10 -4 -4 -6 11 -17 33 -26 22 -8 40 -11 40 -6 0
5 5 9 10 9 6 0 9 -5 8 -11 -2 -6 4 -14 12 -16 13 -4 13 -3 0 6 -13 9 -12 11 5
11 11 1 -13 14 -53 31 -40 16 -78 27 -83 24 -5 -4 -9 -2 -9 3 0 7 -84 44 -94
42 -1 0 -7 -4 -14 -8z m209 -80 c-7 -2 -18 1 -23 6 -8 8 -4 9 13 5 13 -4 18
-8 10 -11z"/>
<path d="M9756 7212 c17 -15 64 -32 64 -23 0 5 -14 14 -31 20 -38 13 -46 14
-33 3z"/>
<path d="M9839 7204 c19 -8 36 -12 39 -9 5 5 -43 25 -61 25 -7 -1 3 -7 22 -16z"/>
<path d="M9710 7200 c8 -5 22 -9 30 -9 10 0 8 3 -5 9 -27 12 -43 12 -25 0z"/>
<path d="M9930 7201 c0 -5 8 -11 18 -14 9 -2 26 -8 37 -12 30 -12 6 9 -27 23
-16 6 -28 8 -28 3z"/>
<path d="M9630 7196 c0 -2 7 -6 15 -10 8 -3 15 -1 15 4 0 6 -7 10 -15 10 -8 0
-15 -2 -15 -4z"/>
<path d="M9592 7180 c2 -8 23 -22 46 -31 33 -15 42 -15 42 -5 0 8 -12 19 -27
24 -16 5 -36 13 -47 18 -13 5 -17 3 -14 -6z"/>
<path d="M9670 7182 c0 -4 20 -15 45 -24 56 -21 60 -6 5 16 -46 18 -50 19 -50
8z"/>
<path d="M9760 7184 c0 -8 72 -36 78 -30 2 3 -1 8 -9 10 -8 3 -26 10 -41 15
-16 6 -28 8 -28 5z"/>
<path d="M9840 7181 c0 -8 79 -35 86 -29 2 2 -17 11 -41 20 -25 10 -45 13 -45
9z"/>
<path d="M9919 7174 c19 -8 36 -12 39 -9 5 5 -43 25 -61 25 -7 -1 3 -7 22 -16z"/>
<path d="M0 7013 c0 -162 1 -167 25 -199 31 -41 31 -49 0 -86 -24 -28 -25 -36
-25 -147 l0 -118 83 -119 c45 -65 104 -148 130 -184 54 -73 65 -103 47 -125
-19 -23 -41 -18 -72 18 l-29 32 15 -30 c13 -28 20 -63 17 -92 -2 -23 -40 -14
-78 20 l-37 32 37 -49 c41 -54 43 -64 23 -91 -19 -26 -38 -15 -88 49 -46 60
-64 58 -30 -3 11 -20 28 -66 37 -103 15 -57 15 -70 3 -95 -7 -15 -23 -32 -36
-38 -22 -10 -22 -12 -22 -210 l0 -200 107 -90 c59 -50 137 -118 173 -152 36
-34 87 -78 114 -99 60 -46 65 -42 100 83 73 259 131 365 284 525 153 159 159
252 42 593 -91 262 -202 496 -302 634 -53 73 -109 132 -120 125 -5 -3 -7 -1
-6 4 6 19 -238 216 -254 206 -5 -4 -24 9 -41 27 -18 18 -26 29 -18 24 9 -5 12
-4 8 3 -4 5 -16 8 -26 5 -10 -3 -22 0 -25 6 -4 6 -14 11 -22 11 -12 0 -14 -28
-14 -167z m180 -391 c48 -30 82 -67 117 -130 31 -56 34 -67 28 -112 -4 -27
-17 -64 -29 -82 l-22 -33 38 -55 c33 -48 38 -60 29 -82 -18 -47 -37 -41 -89
28 -27 36 -71 103 -97 147 -27 45 -61 102 -77 127 -37 58 -52 110 -44 154 12
62 78 80 146 38z m343 -605 c-32 -30 -79 -73 -105 -96 -83 -75 -227 -307 -272
-435 -6 -18 -8 -18 -31 4 -14 13 -25 34 -25 47 0 51 45 152 108 248 84 125
146 195 246 280 l80 67 28 -31 28 -32 -57 -52z"/>
<path d="M124 6495 c-6 -16 14 -54 49 -93 24 -25 37 -15 37 29 0 53 -70 105
-86 64z"/>
<path d="M10020 7161 c8 -5 26 -12 40 -15 l25 -7 -25 15 c-14 9 -32 15 -40 15
-13 0 -13 -1 0 -8z"/>
<path d="M11640 7166 c0 -2 7 -7 16 -10 8 -3 12 -2 9 4 -6 10 -25 14 -25 6z"/>
<path d="M11876 7163 c-3 -3 -48 -6 -101 -5 -59 0 -93 -3 -89 -10 3 -5 12 -7
20 -4 8 3 14 2 14 -2 0 -5 15 -13 33 -19 17 -6 78 -26 134 -44 56 -18 99 -38
96 -43 -3 -5 -1 -6 5 -2 7 4 12 29 12 56 0 44 -2 48 -27 55 -16 4 -29 7 -30 6
-2 0 -16 4 -32 9 -16 4 -32 6 -35 3z"/>
<path d="M9850 7151 c0 -4 23 -17 50 -28 28 -12 50 -18 50 -13 0 4 -22 17 -50
28 -27 12 -50 18 -50 13z"/>
<path d="M9999 7145 c18 -8 36 -15 40 -15 13 1 -45 29 -59 29 -8 0 0 -6 19
-14z"/>
<path d="M9700 7137 c0 -14 100 -61 109 -52 8 9 -12 23 -61 44 -35 15 -48 17
-48 8z"/>
<path d="M9770 7142 c0 -5 17 -14 38 -21 20 -7 43 -15 50 -17 6 -3 12 -1 12 4
0 5 -19 17 -43 26 -49 18 -57 19 -57 8z"/>
<path d="M9940 7144 c0 -7 91 -46 96 -41 2 2 -18 14 -46 25 -27 11 -50 19 -50
16z"/>
<path d="M10110 7125 c14 -8 30 -14 35 -14 6 0 -1 6 -15 14 -14 8 -29 14 -35
14 -5 0 1 -6 15 -14z"/>
<path d="M10100 7100 c19 -11 40 -19 45 -19 6 0 -6 8 -25 19 -19 11 -39 19
-45 19 -5 0 6 -8 25 -19z"/>
<path d="M9890 7100 c0 -5 21 -16 48 -26 26 -10 53 -22 61 -28 11 -8 13 -8 10
3 -5 15 -119 64 -119 51z"/>
<path d="M9970 7101 c0 -5 23 -18 50 -29 28 -12 50 -17 50 -13 0 5 -22 18 -50
29 -27 12 -50 17 -50 13z"/>
<path d="M10050 7095 c0 -5 56 -35 65 -35 3 0 4 4 1 9 -6 10 -66 33 -66 26z"/>
<path d="M9820 7081 c0 -4 27 -20 61 -35 68 -29 69 -30 69 -17 0 9 -103 61
-121 61 -5 0 -9 -4 -9 -9z"/>
<path d="M10210 7086 c0 -2 7 -6 15 -10 8 -3 15 -1 15 4 0 6 -7 10 -15 10 -8
0 -15 -2 -15 -4z"/>
<path d="M10287 7079 c7 -7 15 -10 18 -7 3 3 -2 9 -12 12 -14 6 -15 5 -6 -5z"/>
<path d="M10360 7080 c8 -5 20 -10 25 -10 6 0 3 5 -5 10 -8 5 -19 10 -25 10
-5 0 -3 -5 5 -10z"/>
<path d="M10170 7075 c0 -3 14 -11 30 -20 17 -9 30 -11 30 -6 0 5 -13 14 -30
20 -16 5 -30 8 -30 6z"/>
<path d="M10250 7072 c0 -11 71 -44 78 -37 7 6 6 6 -40 28 -21 9 -38 13 -38 9z"/>
<path d="M10130 7059 c0 -5 1 -9 3 -9 2 0 31 -11 65 -24 34 -14 62 -21 62 -18
0 11 -130 61 -130 51z"/>
<path d="M10410 7060 c8 -5 20 -10 25 -10 6 0 3 5 -5 10 -8 5 -19 10 -25 10
-5 0 -3 -5 5 -10z"/>
<path d="M10080 7052 c0 -9 20 -20 88 -48 39 -17 43 -3 5 16 -67 31 -93 40
-93 32z"/>
<path d="M10356 7051 c17 -14 64 -31 64 -22 0 4 -16 13 -37 19 -20 6 -32 8
-27 3z"/>
<path d="M10020 7042 c0 -4 23 -18 50 -29 28 -12 50 -17 50 -13 0 5 -21 18
-46 30 -53 23 -54 23 -54 12z"/>
<path d="M10240 7044 c0 -7 66 -34 82 -34 7 0 -7 9 -31 20 -47 22 -51 23 -51
14z"/>
<path d="M10470 7035 c14 -8 32 -14 40 -14 9 0 4 6 -10 14 -14 8 -32 14 -40
14 -9 0 -4 -6 10 -14z"/>
<path d="M9965 7019 c-3 -4 20 -17 50 -28 62 -23 75 -25 75 -12 0 12 -119 50
-125 40z"/>
<path d="M10360 7015 c14 -8 32 -14 40 -14 9 0 4 6 -10 14 -14 8 -32 14 -40
14 -9 0 -4 -6 10 -14z"/>
<path d="M10434 7021 c3 -5 20 -14 38 -20 38 -13 26 0 -15 17 -16 7 -26 8 -23
3z"/>
<path d="M10535 7013 c15 -15 125 -56 131 -50 3 3 -5 11 -18 18 -12 7 -23 11
-23 10 0 -1 -11 2 -25 7 -50 19 -75 24 -65 15z"/>
<path d="M10346 6998 c9 -14 94 -51 101 -44 8 8 7 9 -55 34 -29 12 -50 16 -46
10z"/>
<path d="M10140 6991 c0 -12 49 -31 55 -22 3 5 -9 14 -25 20 -17 5 -30 6 -30
2z"/>
<path d="M10210 6992 c0 -4 18 -15 40 -24 22 -9 40 -13 40 -9 0 4 -18 15 -40
24 -22 8 -40 12 -40 9z"/>
<path d="M10281 6996 c14 -13 69 -35 69 -28 0 9 -44 32 -62 32 -6 0 -9 -2 -7
-4z"/>
<path d="M10427 6990 c13 -13 56 -23 49 -12 -3 5 -17 12 -32 15 -14 2 -22 1
-17 -3z"/>
<path d="M10520 6980 c8 -5 20 -10 25 -10 6 0 3 5 -5 10 -8 5 -19 10 -25 10
-5 0 -3 -5 5 -10z"/>
<path d="M11210 6954 c41 -20 96 -37 121 -39 38 -3 212 -71 244 -95 6 -5 40
-20 78 -35 37 -15 67 -32 67 -38 0 -6 3 -8 6 -4 3 3 11 1 18 -4 6 -5 20 -17
31 -25 11 -9 14 -12 6 -8 -10 5 -12 3 -6 -5 4 -7 16 -11 26 -8 11 3 17 2 15
-2 -3 -4 38 -26 90 -48 77 -34 95 -39 92 -25 -4 24 -80 62 -398 204 -263 117
-402 169 -445 167 -11 0 14 -16 55 -35z"/>
<path d="M10100 6972 c0 -7 82 -52 95 -52 3 0 5 4 5 10 0 5 -21 18 -46 30 -53
23 -54 23 -54 12z"/>
<path d="M10360 6961 c0 -8 34 -21 55 -21 11 1 -35 29 -47 30 -5 0 -8 -4 -8
-9z"/>
<path d="M10496 6958 c5 -8 0 -9 -14 -6 -12 4 -22 3 -22 -2 0 -4 23 -8 52 -8
49 0 50 1 27 14 -30 17 -53 18 -43 2z"/>
<path d="M10324 6946 c11 -9 24 -16 30 -16 12 0 7 5 -24 19 -24 11 -24 11 -6
-3z"/>
<path d="M10688 6953 c7 -3 16 -2 19 1 4 3 -2 6 -13 5 -11 0 -14 -3 -6 -6z"/>
<path d="M8890 6830 c-63 -65 -111 -116 -106 -112 5 3 7 -2 3 -10 -4 -11 4
-20 26 -29 18 -7 92 -49 165 -92 l133 -79 55 47 c40 35 52 50 44 60 -12 15
-72 41 -126 55 -23 5 -53 21 -68 35 -15 14 -53 39 -84 55 -66 34 -47 40 25 8
26 -11 55 -20 64 -19 19 2 82 -32 125 -69 60 -52 119 -61 132 -22 2 6 -71 48
-169 97 l-173 85 -25 -23 -25 -22 20 26 c32 42 101 119 107 119 4 0 4 -6 1
-13 -3 -9 44 -39 148 -92 84 -42 159 -82 166 -88 13 -11 41 16 42 40 0 18
-313 164 -348 162 -10 0 -69 -54 -132 -119z m-30 -65 c-7 -9 -11 -17 -9 -19 2
-2 75 -40 162 -86 86 -45 157 -86 157 -91 0 -5 -2 -9 -5 -9 -10 0 -110 53
-200 106 -98 57 -139 72 -150 55 -3 -6 -11 -9 -16 -5 -6 3 7 19 28 35 43 32
51 36 33 14z"/>
<path d="M10258 6938 c5 -5 16 -8 23 -6 8 3 3 7 -10 11 -17 4 -21 3 -13 -5z"/>
<path d="M8970 6880 c-11 -21 -6 -40 10 -40 10 0 198 -92 272 -133 46 -25 46
-25 64 -6 16 17 16 22 4 30 -14 10 -332 169 -337 169 -1 0 -7 -9 -13 -20z"/>
<path d="M9315 6655 c-57 -57 -136 -125 -175 -151 -39 -25 -69 -48 -67 -51 3
-2 15 0 26 7 18 9 21 8 21 -10 0 -31 35 -60 74 -60 61 0 56 25 -11 59 -24 12
-43 26 -43 31 0 13 36 -2 95 -39 27 -17 56 -29 65 -27 8 2 28 7 44 11 27 6 26
8 -50 55 l-79 48 -24 -21 c-16 -15 -22 -17 -19 -7 3 8 16 21 30 29 24 14 30
11 112 -38 74 -44 93 -52 129 -49 l42 3 -47 28 c-25 15 -52 35 -59 43 -7 9
-34 27 -61 40 -26 13 -48 28 -48 33 0 6 15 20 33 32 28 20 30 21 15 3 -10 -11
-18 -24 -18 -27 0 -9 88 -53 125 -61 16 -4 32 -11 35 -14 3 -4 29 -18 58 -31
28 -14 52 -28 52 -33 0 -4 16 -8 35 -8 19 0 35 4 35 8 0 7 -110 73 -252 151
-26 14 -50 31 -52 37 -2 6 14 31 35 55 22 24 38 37 36 29 -5 -21 7 -31 93 -75
41 -22 77 -43 78 -47 2 -5 8 -6 12 -3 5 3 19 -5 31 -17 12 -13 19 -17 15 -11
-6 10 -1 11 21 2 68 -25 139 -79 105 -79 -14 0 -105 46 -228 115 -64 36 -120
65 -124 65 -5 0 -10 5 -12 11 -2 5 -14 -1 -26 -14 l-23 -25 73 -40 c40 -22
102 -56 138 -75 36 -19 85 -47 110 -61 25 -14 48 -26 53 -26 4 0 28 19 52 41
48 45 57 76 28 101 -34 30 -337 168 -369 168 -8 0 -61 -47 -119 -105z m-55
-90 c-7 -8 -17 -15 -22 -15 -6 0 -5 7 2 15 7 8 17 15 22 15 6 0 5 -7 -2 -15z"/>
<path d="M8752 6678 c-17 -22 5 -55 55 -84 26 -15 74 -45 106 -67 92 -61 118
-69 150 -48 l27 18 -22 11 c-13 6 -40 22 -60 34 -20 13 -69 43 -110 67 -40 24
-87 52 -104 62 -25 15 -34 16 -42 7z"/>
<path d="M8314 6361 c11 -11 23 -21 28 -21 14 0 -1 19 -25 31 -22 12 -22 12
-3 -10z"/>
<path d="M8300 6256 c0 -7 117 -86 127 -86 4 0 -15 16 -42 36 -57 40 -85 57
-85 50z"/>
<path d="M8110 6151 c0 -6 4 -13 10 -16 6 -3 7 1 4 9 -7 18 -14 21 -14 7z"/>
<path d="M11595 5770 c-4 -6 3 -10 14 -10 25 0 27 6 6 13 -8 4 -17 2 -20 -3z"/>
<path d="M11940 5650 c0 -5 -8 -10 -17 -12 -15 -3 -14 -6 6 -17 21 -12 23 -11
18 2 -4 10 0 17 11 19 16 3 16 4 0 10 -10 4 -18 3 -18 -2z"/>
<path d="M11100 4903 c14 -11 72 -48 130 -82 58 -34 174 -107 259 -162 84 -55
155 -98 157 -96 4 4 -134 95 -364 239 -169 106 -233 142 -182 101z"/>
<path d="M10973 4553 c-7 -15 -13 -36 -12 -47 0 -13 6 -6 15 18 17 47 15 67
-3 29z"/>
<path d="M11661 4552 c0 -4 64 -47 141 -97 78 -49 155 -99 172 -110 16 -11 27
-15 23 -9 -13 22 -337 230 -336 216z"/>
<path d="M10759 4173 l-24 -28 28 24 c15 14 27 26 27 28 0 8 -8 1 -31 -24z"/>
<path d="M0 4084 c0 -18 24 -44 40 -44 21 0 24 8 14 34 -6 15 -54 24 -54 10z"/>
<path d="M34 3995 c3 -9 6 -19 6 -21 0 -2 9 -4 21 -4 29 0 21 34 -10 38 -19 3
-22 0 -17 -13z"/>
<path d="M11927 3913 c-106 -95 -139 -142 -135 -193 3 -34 32 -68 42 -51 4 6
2 20 -4 32 -23 42 -4 80 86 172 48 48 84 90 81 93 -2 3 -34 -21 -70 -53z"/>
<path d="M10762 3930 c-13 -16 -21 -30 -19 -30 2 0 16 14 30 30 15 17 23 30
19 30 -5 0 -18 -13 -30 -30z"/>
<path d="M60 3921 c0 -15 6 -21 21 -21 14 0 19 5 17 17 -5 26 -38 29 -38 4z"/>
<path d="M5 3920 c3 -5 8 -10 11 -10 2 0 4 5 4 10 0 6 -5 10 -11 10 -5 0 -7
-4 -4 -10z"/>
<path d="M182 3872 c-33 -5 -25 -36 11 -40 17 -2 27 1 27 10 0 23 -14 33 -38
30z"/>
<path d="M94 3845 c8 -8 17 -15 20 -15 3 0 6 7 6 15 0 9 -9 15 -21 15 -18 0
-19 -2 -5 -15z"/>
<path d="M11952 3797 c-23 -23 -44 -56 -47 -72 -4 -26 1 -34 42 -67 47 -37 68
-43 42 -12 -11 13 -11 18 -1 21 6 3 12 9 12 14 0 6 -4 7 -10 4 -5 -3 -10 1
-10 10 0 9 4 14 8 11 4 -2 9 27 11 65 1 38 1 69 -1 69 -2 0 -23 -19 -46 -43z"/>
<path d="M203 3792 c-19 -3 -21 -7 -13 -23 14 -25 50 -25 50 0 0 24 -8 28 -37
23z"/>
<path d="M238 3713 c7 -3 16 -2 19 1 4 3 -2 6 -13 5 -11 0 -14 -3 -6 -6z"/>
<path d="M258 3664 c-4 -5 0 -18 8 -29 15 -20 17 -12 5 19 -4 11 -10 15 -13
10z"/>
<path d="M11835 3660 c-6 -10 42 -59 58 -60 5 0 6 -4 3 -9 -3 -5 18 -30 47
-57 47 -44 52 -47 55 -28 2 15 -13 37 -50 72 -78 74 -106 94 -113 82z"/>
<path d="M387 3570 c6 -22 21 -35 30 -27 2 3 2 15 -2 26 -8 28 -35 28 -28 1z"/>
<path d="M410 3503 c0 -5 7 -18 15 -29 15 -18 15 -18 13 5 -3 23 -28 44 -28
24z"/>
<path d="M440 3423 c0 -5 5 -15 10 -23 8 -12 10 -11 10 8 0 12 -4 22 -10 22
-5 0 -10 -3 -10 -7z"/>
<path d="M529 3338 c6 -16 16 -22 32 -20 29 3 33 7 26 27 -4 9 -19 15 -36 15
-27 0 -29 -2 -22 -22z"/>
<path d="M552 3268 c7 -20 58 -23 58 -4 0 11 -10 16 -31 16 -20 0 -29 -4 -27
-12z"/>
<path d="M585 3210 c-18 -7 -18 -8 8 -15 30 -8 43 -2 32 14 -7 13 -12 13 -40
1z"/>
<path d="M690 3151 c0 -27 15 -41 42 -41 23 0 29 4 24 16 -3 9 -6 20 -6 25 0
5 -13 9 -30 9 -16 0 -30 -4 -30 -9z"/>
<path d="M626 3143 c6 -4 14 -15 17 -23 5 -11 6 -9 4 4 -1 11 -9 21 -17 23
-10 3 -11 2 -4 -4z"/>
<path d="M7275 3120 c-3 -6 1 -7 9 -4 18 7 21 14 7 14 -6 0 -13 -4 -16 -10z"/>
<path d="M740 3070 l-25 -8 28 -1 c15 -1 27 4 27 9 0 6 -1 10 -2 9 -2 -1 -14
-5 -28 -9z"/>
<path d="M810 3070 c0 -5 5 -10 10 -10 6 0 10 5 10 10 0 6 -4 10 -10 10 -5 0
-10 -4 -10 -10z"/>
<path d="M835 3010 c4 -14 12 -29 17 -35 7 -7 8 -2 3 15 -4 14 -12 30 -17 35
-7 7 -8 2 -3 -15z"/>
<path d="M737 3000 c3 -11 9 -20 13 -20 5 0 6 9 3 20 -3 11 -9 20 -13 20 -5 0
-6 -9 -3 -20z"/>
<path d="M760 3016 c0 -2 7 -6 15 -10 8 -3 15 -1 15 4 0 6 -7 10 -15 10 -8 0
-15 -2 -15 -4z"/>
<path d="M942 2848 c7 -19 38 -22 38 -4 0 10 -9 16 -21 16 -12 0 -19 -5 -17
-12z"/>
<path d="M0 2842 c0 -21 381 -502 398 -502 4 0 -16 26 -70 91 -114 136 -192
236 -288 372 -34 47 -40 54 -40 39z"/>
<path d="M1 1403 l-1 -1403 1239 0 1239 0 -46 48 c-26 26 -47 50 -47 53 0 11
-83 88 -89 82 -3 -4 -6 -1 -6 6 0 6 -34 45 -75 87 -41 41 -75 79 -75 83 0 11
-46 52 -52 46 -2 -3 -5 1 -5 9 0 14 33 -13 232 -189 153 -136 271 -225 296
-224 22 0 23 1 5 12 -166 107 -566 468 -832 752 -310 330 -644 743 -631 779 2
6 -11 40 -29 76 -18 36 -40 91 -49 123 -9 31 -18 57 -20 57 -1 0 -18 -7 -36
-15 l-34 -15 38 6 c33 6 37 4 37 -15 0 -11 9 -44 20 -72 10 -29 17 -56 15 -60
-3 -4 0 -10 5 -12 6 -3 5 -4 -2 -3 -7 2 -12 10 -10 19 2 14 -28 40 -39 34 -2
-1 -3 0 -2 2 3 5 -150 164 -293 306 -67 66 -154 162 -194 213 -40 50 -75 92
-77 92 -3 0 0 -6 6 -13 6 -8 7 -18 3 -22 -4 -5 -1 -4 7 0 11 6 13 4 7 -11 -4
-10 -4 -16 -1 -12 4 4 43 -39 88 -95 45 -56 140 -163 212 -237 72 -75 95 -102
51 -60 -146 138 -164 154 -206 182 -14 10 -22 18 -19 18 3 0 -38 44 -92 98
-54 53 -99 101 -99 105 0 4 -15 23 -32 41 -47 47 -106 117 -158 186 -14 18
-35 44 -48 59 -13 14 -31 37 -40 51 -9 14 -43 60 -74 102 -32 42 -58 82 -58
87 0 6 -4 11 -9 11 -5 0 -12 8 -14 18 -3 9 -5 -614 -6 -1385z m2049 -948 c13
-14 21 -25 18 -25 -2 0 -15 11 -28 25 -13 14 -21 25 -18 25 2 0 15 -11 28 -25z"/>
<path d="M8045 2723 c-63 -47 -148 -123 -139 -123 7 0 112 81 170 131 61 53
43 48 -31 -8z"/>
<path d="M1070 2708 c0 -24 15 -36 43 -36 21 0 27 4 23 15 -3 8 -6 19 -6 24 0
5 -13 9 -30 9 -17 0 -30 -5 -30 -12z"/>
<path d="M7375 2640 c-3 -5 -2 -10 3 -10 5 0 12 -22 16 -50 4 -27 11 -52 16
-55 5 -3 7 2 6 12 -2 10 -7 37 -11 60 -7 44 -19 61 -30 43z"/>
<path d="M1122 2632 c-9 -7 -8 -13 8 -27 24 -21 35 -15 25 14 -7 23 -13 25
-33 13z"/>
<path d="M6978 2583 c6 -2 18 -2 25 0 6 3 1 5 -13 5 -14 0 -19 -2 -12 -5z"/>
<path d="M7859 2573 c-13 -16 -12 -17 4 -4 16 13 21 21 13 21 -2 0 -10 -8 -17
-17z"/>
<path d="M7679 2413 c-13 -16 -12 -17 4 -4 16 13 21 21 13 21 -2 0 -10 -8 -17
-17z"/>
<path d="M1307 2393 c-11 -3 -16 -10 -13 -20 3 -8 6 -17 6 -19 0 -6 46 -5 53
2 7 8 -11 45 -21 43 -4 -1 -15 -3 -25 -6z"/>
<path d="M7634 2385 c-10 -8 -14 -15 -8 -15 6 0 17 7 24 15 16 19 9 19 -16 0z"/>
<path d="M6858 2353 c7 -3 16 -2 19 1 4 3 -2 6 -13 5 -11 0 -14 -3 -6 -6z"/>
<path d="M7569 2323 l-34 -38 38 34 c34 33 42 41 34 41 -2 0 -19 -17 -38 -37z"/>
<path d="M7421 2316 l-1 -39 -62 7 c-151 17 -147 17 -88 1 30 -8 80 -14 110
-12 l55 2 -6 40 -6 40 -2 -39z"/>
<path d="M6955 2330 c17 -4 41 -8 55 -8 l25 0 -25 8 c-14 4 -38 8 -55 8 l-30
0 30 -8z"/>
<path d="M425 2310 c10 -11 20 -20 23 -20 3 0 -3 9 -13 20 -10 11 -20 20 -23
20 -3 0 3 -9 13 -20z"/>
<path d="M7288 2313 c6 -2 18 -2 25 0 6 3 1 5 -13 5 -14 0 -19 -2 -12 -5z"/>
<path d="M1351 2289 c9 -17 13 -19 20 -8 5 8 3 16 -4 21 -22 14 -28 8 -16 -13z"/>
<path d="M1218 1748 c18 -69 53 -138 122 -244 155 -236 206 -304 319 -422 79
-84 69 -63 -24 48 -39 47 -94 114 -121 150 -61 81 -244 365 -244 379 0 6 -4
11 -10 11 -5 0 -6 7 -3 17 5 12 3 14 -7 8 -8 -5 -11 -4 -7 2 8 13 -21 113 -32
113 -5 0 -2 -28 7 -62z"/>
<path d="M11860 1238 c-148 -65 -422 -183 -708 -303 -148 -63 -187 -76 -210
-69 -76 22 -321 -1 -281 -27 10 -6 7 -8 -11 -7 -34 2 -116 -24 -294 -92 -150
-57 -185 -72 -281 -116 -79 -35 -360 -158 -470 -204 -55 -23 -122 -52 -150
-65 -27 -13 -88 -36 -135 -53 -85 -30 -219 -82 -275 -107 -188 -85 -255 -113
-345 -149 l-105 -41 115 -3 116 -3 154 67 c176 75 876 357 960 385 l55 19 -37
-34 c-22 -20 -72 -47 -120 -66 -131 -50 -744 -295 -838 -334 l-85 -36 218 0
218 0 97 41 c53 23 167 73 252 111 85 38 193 85 240 105 47 19 99 41 115 49
60 27 299 124 307 124 5 0 41 15 81 33 40 19 101 44 137 57 36 12 130 54 210
93 209 100 238 113 415 179 88 32 223 92 300 132 77 41 217 104 310 141 94 37
174 71 178 75 4 4 7 41 5 82 l-3 75 -135 -59z m-971 -398 c6 -3 -91 -49 -216
-102 -240 -102 -270 -107 -85 -12 62 31 110 59 108 61 -3 3 -62 -10 -271 -63
-16 -4 -17 -3 -5 4 39 25 308 102 357 102 15 0 16 2 3 10 -11 8 1 10 42 9 32
-2 62 -5 67 -9z m-537 -240 c-42 -26 -56 -26 -17 0 17 11 35 20 40 20 6 0 -5
-9 -23 -20z"/>
<path d="M1722 1000 c5 -15 202 -229 207 -225 2 2 -17 26 -42 52 -79 83 -117
128 -117 139 0 12 -32 44 -44 44 -4 0 -6 -4 -4 -10z"/>
<path d="M2150 559 c68 -65 114 -106 107 -93 -4 7 -39 40 -79 74 -40 35 -53
43 -28 19z"/>
<path d="M2560 216 c0 -2 8 -10 18 -17 15 -13 16 -12 3 4 -13 16 -21 21 -21
13z"/>
<path d="M2724 91 c7 -11 46 -35 46 -28 0 3 -12 12 -26 22 -15 9 -23 12 -20 6z"/>
</g>
</svg>
